<svg xmlns="http://www.w3.org/2000/svg">
<defs>
<font id="BentonModernDisplay-LightIt" horiz-adv-x="500" >
  <font-face 
    font-family="Benton Modern Display Light"
    font-weight="300"
    font-style="italic"
    font-stretch="normal"
    units-per-em="1000"
    panose-1="2 0 5 6 8 0 0 2 0 3"
    ascent="800"
    descent="-200"
    x-height="421"
    cap-height="684"
    bbox="-183 -224 937 869"
    underline-thickness="20"
    underline-position="-113"
    slope="-12"
    stemh="13"
    stemv="47"
    unicode-range="U+000D-FB04"
  />
<missing-glyph horiz-adv-x="859" 
d="M577 693c44 0 77 -28 77 -59c0 -22 -18 -43 -43 -43s-45 18 -45 40c0 10 5 26 12 30c16 15 6 22 -5 24c-47 2 -99 -40 -99 -121c0 -86 102 -177 192 -177c83 0 124 48 123 93c-1 8 -11 21 -27 5c-5 -6 -20 -11 -31 -11c-22 0 -41 18 -41 43c0 23 22 40 44 40
c33 0 62 -31 62 -73c0 -65 -68 -125 -149 -125c-112 0 -199 84 -199 191c0 80 62 143 129 143zM282 693c67 0 129 -63 129 -143c0 -107 -87 -191 -199 -191c-81 0 -149 60 -149 125c0 42 29 73 62 73c22 0 44 -17 44 -40c0 -25 -19 -43 -41 -43c-11 0 -26 5 -31 11
c-17 16 -26 3 -27 -5c-2 -45 40 -93 123 -93c90 0 192 91 192 177c0 81 -52 123 -99 121c-11 -2 -21 -9 -5 -24c7 -4 12 -20 12 -30c0 -22 -20 -40 -45 -40s-43 21 -43 43c0 31 33 59 77 59zM577 -9c-67 0 -129 63 -129 143c0 107 87 191 199 191c81 0 149 -60 149 -125
c0 -42 -29 -73 -62 -73c-22 0 -44 17 -44 40c0 25 19 43 41 43c11 0 26 -5 31 -11c16 -16 26 -3 27 5c1 45 -40 93 -123 93c-90 0 -192 -91 -192 -177c0 -81 52 -123 99 -121c12 2 21 9 5 24c-7 4 -12 20 -12 30c0 22 20 40 45 40s43 -21 43 -43c0 -31 -33 -59 -77 -59z
M282 -9c-44 0 -77 28 -77 59c0 22 18 43 43 43s45 -18 45 -40c0 -10 -5 -26 -12 -30c-16 -15 -6 -22 5 -24c47 -2 99 40 99 121c0 86 -102 177 -192 177c-83 0 -125 -48 -123 -93c1 -8 10 -21 27 -5c5 6 20 11 31 11c22 0 41 -18 41 -43c0 -23 -22 -40 -44 -40
c-33 0 -62 31 -62 73c0 65 68 125 149 125c112 0 199 -84 199 -191c0 -80 -62 -143 -129 -143z" />
    <glyph glyph-name="ff" unicode="ff" horiz-adv-x="456" 
d="M378 516l-25 -102h98l-3 -13h-98l-52 -220c-65 -264 -107 -350 -173 -350c-34 0 -46 19 -46 38c0 23 20 39 39 39c14 0 27 -11 27 -32c0 -17 -15 -34 -1 -34c13 0 35 46 59 147l98 412h-172l-52 -220c-65 -264 -111 -387 -182 -387c-37 0 -49 21 -49 41c0 25 21 42 41 42
c16 0 30 -12 30 -34c0 -19 -17 -37 -2 -37s36 45 60 146l105 449h-61l3 13h61l15 59c29 119 114 211 211 211c40 0 77 -15 88 -37c25 30 56 50 94 50c30 0 49 -18 49 -44c0 -23 -15 -45 -42 -45c-19 0 -30 15 -30 33c0 22 13 28 13 38c0 4 -5 6 -10 6
c-39 0 -67 -63 -93 -169zM358 586c-18 3 -28 18 -27 32c1 24 21 30 21 37c0 9 -9 20 -46 20c-65 0 -122 -56 -149 -162l-25 -99h172l15 62c9 37 20 73 39 110z" />
    <glyph glyph-name="ffi" unicode="ffi" horiz-adv-x="655" 
d="M616 627c0 -23 -14 -39 -36 -39c-15 0 -32 10 -32 31s15 27 15 34c0 11 -9 22 -46 22c-65 0 -112 -56 -139 -162l-25 -99h104l106 6c0 -31 -4 -65 -24 -129l-53 -169c-6 -20 -14 -54 -14 -65c0 -18 7 -29 23 -29c20 0 53 32 92 100l9 -6c-38 -75 -77 -128 -117 -128
c-30 0 -51 21 -51 57c0 21 5 48 14 78l65 214c4 14 7 25 7 33c0 19 -14 25 -44 25h-120l-52 -220c-65 -264 -104 -350 -172 -350c-36 0 -48 20 -48 38c0 24 21 40 40 40c15 0 29 -11 29 -32c0 -18 -17 -35 -2 -35c14 0 36 46 60 147l96 412h-172l-52 -220
c-65 -264 -111 -387 -182 -387c-37 0 -49 21 -49 41c0 25 21 42 41 42c16 0 30 -12 30 -34c0 -19 -17 -37 -2 -37s36 45 60 146l105 449h-61l3 13h61l15 59c29 119 114 211 211 211c40 0 91 -16 88 -60c25 30 74 60 123 60c59 0 96 -24 96 -57zM368 587
c-22 -2 -38 14 -37 31c1 23 21 30 21 37c0 9 -9 20 -46 20c-65 0 -122 -56 -149 -162l-25 -99h172l15 62c9 37 30 84 49 111z" />
    <glyph glyph-name="ffl" unicode="ffl" horiz-adv-x="657" 
d="M19 401l3 13h61l15 59c29 119 114 211 211 211c40 0 91 -16 88 -60c25 30 74 60 123 60c23 0 43 -3 60 -11l69 15l-160 -557c-9 -30 -17 -60 -17 -73c0 -19 7 -30 23 -30c20 0 55 35 92 100l9 -6c-39 -78 -79 -128 -116 -128c-33 0 -52 21 -52 58c0 22 5 46 13 74l78 275
h-169l-52 -220c-65 -264 -105 -350 -172 -350c-35 0 -46 20 -46 38c0 23 20 39 39 39c15 0 28 -11 28 -31c0 -18 -16 -35 -2 -35s36 46 60 147l96 412h-172l-52 -220c-65 -264 -111 -387 -182 -387c-37 0 -49 21 -49 41c0 25 21 42 41 42c16 0 30 -12 30 -34
c0 -19 -17 -37 -2 -37s36 45 60 146l105 449h-61zM523 414l49 174c-16 0 -30 13 -29 30c2 26 20 30 20 37c0 9 -9 20 -46 20c-65 0 -112 -56 -139 -162l-25 -99h170zM306 675c-65 0 -122 -56 -149 -162l-25 -99h172l15 62c9 37 25 84 45 110c-22 -2 -34 15 -33 32
c1 23 21 30 21 37c1 9 -9 20 -46 20z" />
    <glyph glyph-name="fi" unicode="fi" horiz-adv-x="434" 
d="M80 401h-61l3 13h61l15 59c29 119 111 211 201 211c59 0 96 -24 96 -57c0 -23 -14 -39 -36 -39c-15 0 -32 10 -32 31s15 27 15 34c0 11 -9 22 -46 22c-65 0 -110 -56 -137 -162l-25 -99h102l106 6c0 -31 -4 -65 -24 -129l-53 -169c-6 -20 -14 -54 -14 -65
c0 -18 7 -29 23 -29c20 0 53 32 92 100l9 -6c-38 -75 -77 -128 -117 -128c-30 0 -51 21 -51 57c0 21 5 48 14 78l65 214c4 14 7 25 7 33c0 19 -14 25 -44 25h-118l-54 -220c-65 -264 -111 -387 -182 -387c-37 0 -49 21 -49 41c0 24 20 42 40 42c16 0 31 -12 31 -34
c0 -19 -17 -37 -2 -37s36 45 60 146z" />
    <glyph glyph-name="fl" unicode="fl" horiz-adv-x="436" 
d="M-85 -194c15 0 46 86 60 146l105 449h-61l3 13h61l15 59c30 118 111 211 201 211c23 0 43 -3 60 -11l69 15l-160 -557c-9 -30 -17 -60 -17 -73c0 -19 7 -30 23 -30c20 0 55 35 92 100l9 -6c-39 -78 -79 -128 -116 -128c-33 0 -52 21 -52 58c0 22 5 46 13 74l78 275h-167
l-54 -220c-65 -264 -111 -387 -182 -387c-37 0 -49 21 -49 41c0 25 20 42 41 42c16 0 30 -12 30 -34c0 -19 -17 -37 -2 -37zM296 675c-65 0 -110 -56 -137 -162l-25 -99h168l49 174c-16 0 -30 13 -29 30c2 26 20 30 20 37c0 9 -9 20 -46 20z" />
    <glyph glyph-name=".notdef" horiz-adv-x="859" 
d="M577 693c44 0 77 -28 77 -59c0 -22 -18 -43 -43 -43s-45 18 -45 40c0 10 5 26 12 30c16 15 6 22 -5 24c-47 2 -99 -40 -99 -121c0 -86 102 -177 192 -177c83 0 124 48 123 93c-1 8 -11 21 -27 5c-5 -6 -20 -11 -31 -11c-22 0 -41 18 -41 43c0 23 22 40 44 40
c33 0 62 -31 62 -73c0 -65 -68 -125 -149 -125c-112 0 -199 84 -199 191c0 80 62 143 129 143zM282 693c67 0 129 -63 129 -143c0 -107 -87 -191 -199 -191c-81 0 -149 60 -149 125c0 42 29 73 62 73c22 0 44 -17 44 -40c0 -25 -19 -43 -41 -43c-11 0 -26 5 -31 11
c-17 16 -26 3 -27 -5c-2 -45 40 -93 123 -93c90 0 192 91 192 177c0 81 -52 123 -99 121c-11 -2 -21 -9 -5 -24c7 -4 12 -20 12 -30c0 -22 -20 -40 -45 -40s-43 21 -43 43c0 31 33 59 77 59zM577 -9c-67 0 -129 63 -129 143c0 107 87 191 199 191c81 0 149 -60 149 -125
c0 -42 -29 -73 -62 -73c-22 0 -44 17 -44 40c0 25 19 43 41 43c11 0 26 -5 31 -11c16 -16 26 -3 27 5c1 45 -40 93 -123 93c-90 0 -192 -91 -192 -177c0 -81 52 -123 99 -121c12 2 21 9 5 24c-7 4 -12 20 -12 30c0 22 20 40 45 40s43 -21 43 -43c0 -31 -33 -59 -77 -59z
M282 -9c-44 0 -77 28 -77 59c0 22 18 43 43 43s45 -18 45 -40c0 -10 -5 -26 -12 -30c-16 -15 -6 -22 5 -24c47 -2 99 40 99 121c0 86 -102 177 -192 177c-83 0 -125 -48 -123 -93c1 -8 10 -21 27 -5c5 6 20 11 31 11c22 0 41 -18 41 -43c0 -23 -22 -40 -44 -40
c-33 0 -62 31 -62 73c0 65 68 125 149 125c112 0 199 -84 199 -191c0 -80 -62 -143 -129 -143z" />
    <glyph glyph-name=".null" horiz-adv-x="0" 
 />
    <glyph glyph-name=".null" horiz-adv-x="0" 
 />
    <glyph glyph-name="A" unicode="A" horiz-adv-x="613" 
d="M398 235h-270l-49 -85c-49 -85 -69 -137 5 -137h19l-4 -13h-186l3 13c53 3 76 27 120 100l357 584h17l52 -614c4 -52 15 -68 73 -70l-3 -13h-232l4 13h29c68 0 79 19 73 106zM136 248h261l-29 383z" />
    <glyph glyph-name="AE" unicode="&#xc6;" horiz-adv-x="910" 
d="M434 235h-239l-52 -64c-57 -70 -75 -101 -75 -128c0 -24 29 -30 55 -30h19l-4 -13h-211l4 13c57 5 79 24 158 119l318 391c54 67 84 104 84 124c0 18 -14 24 -69 24h-19l4 13h504l-52 -246h-11c28 179 26 233 -116 233h-78c-46 0 -63 -19 -73 -61l-62 -249h43
c109 0 135 22 171 145h11l-77 -311h-11c26 123 7 153 -96 153h-44l-69 -274c-10 -39 -5 -61 40 -61h84c141 0 182 60 253 253h11l-83 -266h-469l3 13h29c46 0 67 14 79 61zM205 248h232l105 417h-3z" />
    <glyph glyph-name="Aacute" unicode="&#xc1;" horiz-adv-x="613" 
d="M398 235h-270l-49 -85c-49 -85 -69 -137 5 -137h19l-4 -13h-186l3 13c53 3 76 27 120 100l357 584h17l52 -614c4 -52 15 -68 73 -70l-3 -13h-232l4 13h29c68 0 79 19 73 106zM136 248h261l-29 383zM359 719l-4 4l72 94c16 21 28 36 45 36c19 0 30 -14 30 -28
s-11 -28 -36 -43z" />
    <glyph glyph-name="Acircumflex" unicode="&#xc2;" horiz-adv-x="613" 
d="M398 235h-270l-49 -85c-49 -85 -69 -137 5 -137h19l-4 -13h-186l3 13c53 3 76 27 120 100l357 584h17l52 -614c4 -52 15 -68 73 -70l-3 -13h-232l4 13h29c68 0 79 19 73 106zM136 248h261l-29 383zM300 717l113 146h36l42 -143l-5 -3l-70 91l-111 -93z" />
    <glyph glyph-name="Adieresis" unicode="&#xc4;" horiz-adv-x="613" 
d="M398 235h-270l-49 -85c-49 -85 -69 -137 5 -137h19l-4 -13h-186l3 13c53 3 76 27 120 100l357 584h17l52 -614c4 -52 15 -68 73 -70l-3 -13h-232l4 13h29c68 0 79 19 73 106zM136 248h261l-29 383zM433 784c0 23 18 40 40 40s41 -17 41 -40s-19 -40 -41 -40
s-40 17 -40 40zM291 784c0 23 18 40 40 40s41 -17 41 -40s-19 -40 -41 -40s-40 17 -40 40z" />
    <glyph glyph-name="Agrave" unicode="&#xc0;" horiz-adv-x="613" 
d="M398 235h-270l-49 -85c-49 -85 -69 -137 5 -137h19l-4 -13h-186l3 13c53 3 76 27 120 100l357 584h17l52 -614c4 -52 15 -68 73 -70l-3 -13h-232l4 13h29c68 0 79 19 73 106zM136 248h261l-29 383zM446 719l-107 63c-25 15 -36 29 -36 43s11 28 30 28c17 0 29 -15 45 -36
l72 -94z" />
    <glyph glyph-name="Aring" unicode="&#xc5;" horiz-adv-x="613" 
d="M411 680c0 1 51 -597 51 -597c4 -52 15 -68 73 -70l-3 -13h-232l4 13h29c68 0 79 19 73 106l-8 116h-270l-49 -85c-49 -85 -69 -137 5 -137h19l-4 -13h-186l3 13c53 3 76 27 120 100l350 572c-35 13 -57 42 -57 84c0 47 42 85 89 85c48 0 79 -39 79 -85
c0 -44 -30 -88 -86 -89zM413 834c-36 0 -62 -25 -62 -65c0 -38 27 -70 62 -70c38 0 62 32 62 70c0 40 -25 65 -62 65zM136 248h261l-29 383z" />
    <glyph glyph-name="Atilde" unicode="&#xc3;" horiz-adv-x="613" 
d="M398 235h-270l-49 -85c-49 -85 -69 -137 5 -137h19l-4 -13h-186l3 13c53 3 76 27 120 100l357 584h17l52 -614c4 -52 15 -68 73 -70l-3 -13h-232l4 13h29c68 0 79 19 73 106zM136 248h261l-29 383zM382 809c38 -1 59 -23 90 -25c22 -1 34 7 56 41l7 -2
c-30 -59 -57 -85 -104 -83c-39 2 -57 24 -88 26c-22 1 -37 -9 -57 -40l-7 2c30 60 54 82 103 81z" />
    <glyph glyph-name="B" unicode="B" horiz-adv-x="532" 
d="M-68 13h29c48 0 68 20 78 61l134 536c14 55 -9 61 -49 61h-29l3 13h202c130 0 208 -60 196 -165c-11 -94 -95 -144 -191 -164v-3c88 -24 153 -84 144 -169c-10 -107 -125 -183 -291 -183h-229zM163 358h75c134 0 189 78 200 154c12 84 -14 159 -120 159h-13
c-46 0 -66 -8 -79 -61zM134 13h38c142 0 204 88 217 176c10 71 -20 156 -153 156h-76l-68 -271c-9 -35 -7 -61 42 -61z" />
    <glyph glyph-name="C" unicode="C" horiz-adv-x="555" 
d="M365 694c52 0 87 -23 114 -46c12 -10 28 -18 37 -18c16 0 30 12 53 58h13l-59 -272h-10c20 184 -71 269 -148 269c-136 0 -229 -136 -268 -333c-10 -51 -16 -106 -16 -157c-1 -107 40 -193 148 -193c109 0 196 81 251 241h15c-57 -171 -146 -256 -269 -256
c-138 0 -206 120 -206 265c0 250 172 442 345 442z" />
    <glyph glyph-name="CR" unicode="&#xd;" horiz-adv-x="0" 
 />
    <glyph glyph-name="Ccedilla" unicode="&#xc7;" horiz-adv-x="555" 
d="M193 -217c-42 0 -71 11 -102 39l8 11c17 -15 45 -30 79 -30c46 0 77 28 80 65c3 32 -17 50 -40 50c-7 0 -16 -1 -23 -3l24 72c-133 4 -199 122 -199 265c0 250 172 442 345 442c52 0 87 -23 114 -46c12 -10 28 -18 37 -18c16 0 30 12 53 58h13l-59 -272h-10
c20 184 -71 269 -148 269c-136 0 -229 -136 -268 -333c-10 -51 -16 -106 -16 -157c-1 -107 40 -193 148 -193c109 0 196 81 251 241h15c-56 -168 -143 -253 -263 -256l-19 -59c3 1 15 4 32 4c29 0 61 -21 61 -63c0 -58 -61 -86 -113 -86z" />
    <glyph glyph-name="D" unicode="D" horiz-adv-x="610" 
d="M-69 13h29c46 0 67 15 79 62l134 534c13 51 -6 62 -50 62h-29l3 13h227c138 0 253 -81 253 -264c0 -244 -201 -420 -412 -420h-237zM134 13h33c219 0 353 211 353 456c0 122 -73 202 -190 202h-33c-46 0 -61 -22 -71 -62l-134 -534c-11 -42 -3 -62 42 -62z" />
    <glyph glyph-name="E" unicode="E" horiz-adv-x="555" 
d="M-69 13h29c46 0 67 14 79 61l134 536c12 47 -2 61 -46 61h-33l3 13h459l-52 -246h-11c28 179 26 233 -116 233h-78c-46 0 -63 -19 -73 -61l-62 -249h43c109 0 135 22 171 145h11l-77 -311h-11c26 123 7 153 -96 153h-44l-69 -274c-10 -39 -5 -61 40 -61h84
c141 0 182 60 253 253h11l-83 -266h-469z" />
    <glyph glyph-name="Eacute" unicode="&#xc9;" horiz-adv-x="555" 
d="M-69 13h29c46 0 67 14 79 61l134 536c12 47 -2 61 -46 61h-33l3 13h459l-52 -246h-11c28 179 26 233 -116 233h-78c-46 0 -63 -19 -73 -61l-62 -249h43c109 0 135 22 171 145h11l-77 -311h-11c26 123 7 153 -96 153h-44l-69 -274c-10 -39 -5 -61 40 -61h84
c141 0 182 60 253 253h11l-83 -266h-469zM334 719l-4 4l72 94c16 21 28 36 45 36c19 0 30 -14 30 -28s-11 -28 -36 -43z" />
    <glyph glyph-name="Ecircumflex" unicode="&#xca;" horiz-adv-x="555" 
d="M-69 13h29c46 0 67 14 79 61l134 536c12 47 -2 61 -46 61h-33l3 13h459l-52 -246h-11c28 179 26 233 -116 233h-78c-46 0 -63 -19 -73 -61l-62 -249h43c109 0 135 22 171 145h11l-77 -311h-11c26 123 7 153 -96 153h-44l-69 -274c-10 -39 -5 -61 40 -61h84
c141 0 182 60 253 253h11l-83 -266h-469zM259 717l113 146h36l42 -143l-5 -3l-70 91l-111 -93z" />
    <glyph glyph-name="Edieresis" unicode="&#xcb;" horiz-adv-x="555" 
d="M-69 13h29c46 0 67 14 79 61l134 536c12 47 -2 61 -46 61h-33l3 13h459l-52 -246h-11c28 179 26 233 -116 233h-78c-46 0 -63 -19 -73 -61l-62 -249h43c109 0 135 22 171 145h11l-77 -311h-11c26 123 7 153 -96 153h-44l-69 -274c-10 -39 -5 -61 40 -61h84
c141 0 182 60 253 253h11l-83 -266h-469zM394 784c0 23 18 40 40 40s41 -17 41 -40s-19 -40 -41 -40s-40 17 -40 40zM252 784c0 23 18 40 40 40s41 -17 41 -40s-19 -40 -41 -40s-40 17 -40 40z" />
    <glyph glyph-name="Egrave" unicode="&#xc8;" horiz-adv-x="555" 
d="M-69 13h29c46 0 67 14 79 61l134 536c12 47 -2 61 -46 61h-33l3 13h459l-52 -246h-11c28 179 26 233 -116 233h-78c-46 0 -63 -19 -73 -61l-62 -249h43c109 0 135 22 171 145h11l-77 -311h-11c26 123 7 153 -96 153h-44l-69 -274c-10 -39 -5 -61 40 -61h84
c141 0 182 60 253 253h11l-83 -266h-469zM405 719l-107 63c-25 15 -36 29 -36 43s11 28 30 28c17 0 29 -15 45 -36l72 -94z" />
    <glyph glyph-name="Eth" unicode="&#xd0;" horiz-adv-x="610" 
d="M106 341h-81l3 13h81l64 255c13 51 -6 62 -50 62h-29l3 13h227c138 0 253 -81 253 -264c0 -244 -201 -420 -412 -420h-237l3 13h29c46 0 67 15 79 62zM162 354h178l-3 -13h-178l-67 -266c-11 -42 -3 -62 42 -62h33c219 0 353 211 353 456c0 122 -73 202 -190 202h-33
c-46 0 -61 -22 -71 -62z" />
    <glyph glyph-name="Euro" unicode="&#x20ac;" horiz-adv-x="443" 
d="M99 377h-54l3 12h55c47 153 147 273 260 273c78 0 115 -50 113 -100s-28 -70 -53 -70c-26 0 -40 15 -40 39c0 29 22 42 45 45c13 2 24 -5 25 16c1 19 -30 62 -91 62c-96 0 -164 -128 -205 -265h178l-3 -12h-178c-6 -19 -10 -34 -14 -54c-3 -13 -7 -31 -9 -44h178l-3 -12
h-176c-21 -144 -11 -264 75 -264c74 0 122 46 164 140h13c-42 -101 -96 -156 -181 -156c-103 0 -149 110 -127 280h-58l3 12h56c3 17 7 40 12 58c3 14 7 27 12 40z" />
    <glyph glyph-name="F" unicode="F" 
d="M-69 13h29c46 0 68 15 79 61l134 536c11 43 1 61 -47 61h-30l3 13h451l-51 -238h-10c21 157 29 225 -111 225h-76c-46 0 -64 -15 -76 -61l-63 -255h41c112 0 138 31 170 145h11l-77 -310h-11c24 104 19 152 -95 152h-42l-68 -268c-10 -40 -4 -61 41 -61h51l-3 -13h-253z
" />
    <glyph glyph-name="G" unicode="G" horiz-adv-x="570" 
d="M21 254c0 228 155 440 322 440c49 0 77 -21 110 -46c14 -11 25 -18 35 -18c15 0 37 17 58 63h10l-56 -253h-9c10 170 -72 245 -148 245c-115 0 -201 -129 -239 -288c-15 -61 -22 -125 -22 -189c0 -112 39 -208 125 -208c87 0 158 79 174 142l21 85c12 47 -2 61 -48 61
h-33l3 13h217l-4 -13h-5c-48 0 -67 -13 -79 -61l-59 -237h-7c-3 42 -13 61 -30 61c-15 0 -28 -12 -41 -21c-32 -23 -64 -39 -110 -39c-98 0 -185 81 -185 263z" />
    <glyph glyph-name="H" unicode="H" horiz-adv-x="607" 
d="M-68 13h29c46 0 66 14 78 61l133 533c13 51 0 64 -48 64h-29l3 13h236l-3 -13h-29c-46 0 -64 -12 -76 -60l-64 -257h292l63 253c14 56 -3 64 -47 64h-30l3 13h236l-3 -13h-29c-45 0 -64 -9 -76 -59l-134 -538c-14 -55 4 -59 49 -61h28l-3 -13h-238l3 13h30
c45 0 66 12 78 61l67 267h-292l-67 -267c-11 -44 -2 -61 43 -61h34l-3 -13h-237z" />
    <glyph glyph-name="I" unicode="I" horiz-adv-x="276" 
d="M-56 13h22c46 0 66 12 78 60l134 536c12 50 -2 62 -47 62h-23l4 13h223l-3 -13h-22c-48 0 -67 -12 -79 -62l-134 -536c-12 -48 4 -60 48 -60h22l-3 -13h-223z" />
    <glyph glyph-name="Iacute" unicode="&#xcd;" horiz-adv-x="276" 
d="M-56 13h22c46 0 66 12 78 60l134 536c12 50 -2 62 -47 62h-23l4 13h223l-3 -13h-22c-48 0 -67 -12 -79 -62l-134 -536c-12 -48 4 -60 48 -60h22l-3 -13h-223zM196 719l-4 4l72 94c16 21 28 36 45 36c19 0 30 -14 30 -28s-11 -28 -36 -43z" />
    <glyph glyph-name="Icircumflex" unicode="&#xce;" horiz-adv-x="276" 
d="M-56 13h22c46 0 66 12 78 60l134 536c12 50 -2 62 -47 62h-23l4 13h223l-3 -13h-22c-48 0 -67 -12 -79 -62l-134 -536c-12 -48 4 -60 48 -60h22l-3 -13h-223zM128 717l113 146h36l42 -143l-5 -3l-70 91l-111 -93z" />
    <glyph glyph-name="Idieresis" unicode="&#xcf;" horiz-adv-x="276" 
d="M-56 13h22c46 0 66 12 78 60l134 536c12 50 -2 62 -47 62h-23l4 13h223l-3 -13h-22c-48 0 -67 -12 -79 -62l-134 -536c-12 -48 4 -60 48 -60h22l-3 -13h-223zM267 784c0 23 18 40 40 40s41 -17 41 -40s-19 -40 -41 -40s-40 17 -40 40zM125 784c0 23 18 40 40 40
s41 -17 41 -40s-19 -40 -41 -40s-40 17 -40 40z" />
    <glyph glyph-name="Igrave" unicode="&#xcc;" horiz-adv-x="276" 
d="M-56 13h22c46 0 66 12 78 60l134 536c12 50 -2 62 -47 62h-23l4 13h223l-3 -13h-22c-48 0 -67 -12 -79 -62l-134 -536c-12 -48 4 -60 48 -60h22l-3 -13h-223zM262 719l-107 63c-25 15 -36 29 -36 43s11 28 30 28c17 0 29 -15 45 -36l72 -94z" />
    <glyph glyph-name="J" unicode="J" horiz-adv-x="408" 
d="M-43 100c0 46 28 85 69 85c29 0 44 -20 44 -46s-20 -46 -44 -46s-37 15 -44 15c-5 0 -9 -5 -9 -15c2 -55 37 -95 104 -95c66 0 106 63 135 179l108 433c12 47 -1 61 -51 61h-35l3 13h248l-3 -13h-29c-46 0 -67 -9 -80 -61l-102 -407c-37 -150 -108 -213 -196 -213
c-73 0 -118 42 -118 110z" />
    <glyph glyph-name="K" unicode="K" horiz-adv-x="571" 
d="M267 396l148 -322c21 -45 35 -61 72 -61h9l-4 -13h-211l3 13h21c32 0 53 5 58 24c3 13 -2 26 -7 38l-128 288l-83 -77l-53 -212c-13 -51 4 -61 49 -61h28l-3 -13h-237l3 13h28c46 0 68 15 79 61l134 536c12 47 -1 61 -51 61h-27l3 13h236l-3 -13h-27
c-46 0 -65 -9 -78 -61l-76 -305l246 229c68 63 94 97 94 116c0 18 -18 21 -63 21h-18l3 13h219l-3 -13c-57 0 -86 -22 -151 -82z" />
    <glyph glyph-name="L" unicode="L" 
d="M-69 13h29c46 0 67 14 79 61l134 536c11 45 1 61 -50 61h-28l3 13h254l-4 -13h-40c-52 0 -69 -11 -82 -61l-134 -537c-12 -47 2 -60 47 -60h50c157 0 188 56 259 243h12l-79 -256h-453z" />
    <glyph glyph-name="Lslash" unicode="&#x141;" 
d="M98 308l75 302c11 45 1 61 -50 61h-28l3 13h254l-4 -13h-40c-52 0 -69 -11 -82 -61l-71 -284l168 80l-4 -15l-168 -80l-59 -238c-12 -47 2 -60 47 -60h50c157 0 188 56 259 243h12l-79 -256h-453l3 13h29c46 0 67 14 79 61l55 219l-64 -30l4 15z" />
    <glyph glyph-name="M" unicode="M" horiz-adv-x="685" 
d="M617 684h142l-3 -13h-28c-45 0 -67 -7 -80 -61l-133 -536c-13 -53 5 -61 49 -61h29l-3 -13h-237l3 13h39c45 0 59 28 67 61l135 541h-1l-352 -626h-6l-46 626h-1l-119 -478c-23 -90 -9 -124 65 -124h4l-3 -13h-218l3 13h12c65 0 98 33 120 124l118 473
c12 49 -2 61 -53 61h-24l3 13h140l43 -597z" />
    <glyph glyph-name="N" unicode="N" horiz-adv-x="590" 
d="M190 613l-118 -477c-22 -89 -12 -123 65 -123h4l-3 -13h-219l3 13h13c66 0 98 34 120 123l123 497c-16 30 -30 37 -96 38l3 13h135l191 -585l112 448c28 112 -9 124 -54 124h-13l3 13h218l-4 -13h-7c-78 0 -98 -10 -126 -124l-139 -559h-9z" />
    <glyph glyph-name="Ntilde" unicode="&#xd1;" horiz-adv-x="590" 
d="M190 613l-118 -477c-22 -89 -12 -123 65 -123h4l-3 -13h-219l3 13h13c66 0 98 34 120 123l123 497c-16 30 -30 37 -96 38l3 13h135l191 -585l112 448c28 112 -9 124 -54 124h-13l3 13h218l-4 -13h-7c-78 0 -98 -10 -126 -124l-139 -559h-9zM375 809c38 -1 59 -23 90 -25
c22 -1 34 7 56 41l7 -2c-30 -59 -57 -85 -104 -83c-39 2 -57 24 -88 26c-22 1 -37 -9 -57 -40l-7 2c30 60 54 82 103 81z" />
    <glyph glyph-name="O" unicode="O" horiz-adv-x="574" 
d="M353 697c133 0 200 -113 200 -245c0 -249 -178 -465 -337 -465c-105 0 -195 98 -195 274c0 210 164 436 332 436zM358 688c-129 0 -217 -141 -254 -301c-14 -58 -21 -118 -21 -176c0 -128 39 -215 131 -215c115 0 221 129 260 334c10 52 15 108 15 168
c0 112 -37 190 -131 190z" />
    <glyph glyph-name="OE" unicode="&#x152;" horiz-adv-x="869" 
d="M870 684l-52 -246h-11c28 179 26 233 -116 233h-78c-46 0 -63 -19 -73 -61l-62 -249h43c109 0 135 22 171 145h11l-77 -311h-11c26 123 7 153 -96 153h-44l-69 -274c-10 -39 -5 -61 40 -61h84c141 0 182 60 253 253h11l-83 -266h-455c-117 0 -234 64 -234 267
c0 267 215 417 400 417h448zM437 671h-23c-179 0 -330 -161 -330 -448c0 -153 84 -210 170 -210h21c46 0 68 21 78 61l133 533c13 53 -4 64 -49 64z" />
    <glyph glyph-name="Oacute" unicode="&#xd3;" horiz-adv-x="574" 
d="M353 697c133 0 200 -113 200 -245c0 -249 -178 -465 -337 -465c-105 0 -195 98 -195 274c0 210 164 436 332 436zM358 688c-129 0 -217 -141 -254 -301c-14 -58 -21 -118 -21 -176c0 -128 39 -215 131 -215c115 0 221 129 260 334c10 52 15 108 15 168
c0 112 -37 190 -131 190zM351 719l-4 4l72 94c16 21 28 36 45 36c19 0 30 -14 30 -28s-11 -28 -36 -43z" />
    <glyph glyph-name="Ocircumflex" unicode="&#xd4;" horiz-adv-x="574" 
d="M353 697c133 0 200 -113 200 -245c0 -249 -178 -465 -337 -465c-105 0 -195 98 -195 274c0 210 164 436 332 436zM358 688c-129 0 -217 -141 -254 -301c-14 -58 -21 -118 -21 -176c0 -128 39 -215 131 -215c115 0 221 129 260 334c10 52 15 108 15 168
c0 112 -37 190 -131 190zM273 717l113 146h36l42 -143l-5 -3l-70 91l-111 -93z" />
    <glyph glyph-name="Odieresis" unicode="&#xd6;" horiz-adv-x="574" 
d="M353 697c133 0 200 -113 200 -245c0 -249 -178 -465 -337 -465c-105 0 -195 98 -195 274c0 210 164 436 332 436zM358 688c-129 0 -217 -141 -254 -301c-14 -58 -21 -118 -21 -176c0 -128 39 -215 131 -215c115 0 221 129 260 334c10 52 15 108 15 168
c0 112 -37 190 -131 190zM399 784c0 23 18 40 40 40s41 -17 41 -40s-19 -40 -41 -40s-40 17 -40 40zM257 784c0 23 18 40 40 40s41 -17 41 -40s-19 -40 -41 -40s-40 17 -40 40z" />
    <glyph glyph-name="Ograve" unicode="&#xd2;" horiz-adv-x="574" 
d="M353 697c133 0 200 -113 200 -245c0 -249 -178 -465 -337 -465c-105 0 -195 98 -195 274c0 210 164 436 332 436zM358 688c-129 0 -217 -141 -254 -301c-14 -58 -21 -118 -21 -176c0 -128 39 -215 131 -215c115 0 221 129 260 334c10 52 15 108 15 168
c0 112 -37 190 -131 190zM426 719l-107 63c-25 15 -36 29 -36 43s11 28 30 28c17 0 29 -15 45 -36l72 -94z" />
    <glyph glyph-name="Omega" unicode="&#x2126;" horiz-adv-x="489" 
d="M42 328h405l-4 -14h-405z" />
    <glyph glyph-name="Oslash" unicode="&#xd8;" horiz-adv-x="574" 
d="M65 78c-27 45 -44 107 -44 183c0 210 164 436 332 436c62 0 110 -25 143 -65l86 111h17l-94 -122c32 -44 48 -104 48 -169c0 -249 -178 -465 -337 -465c-56 0 -107 27 -143 79l-97 -125h-17zM93 113l381 490c-19 53 -56 85 -116 85c-176 0 -275 -260 -275 -477
c0 -36 3 -69 10 -98zM479 588l-382 -491c18 -63 56 -101 117 -101c144 0 274 202 275 502c0 33 -3 64 -10 90z" />
    <glyph glyph-name="Otilde" unicode="&#xd5;" horiz-adv-x="574" 
d="M353 697c133 0 200 -113 200 -245c0 -249 -178 -465 -337 -465c-105 0 -195 98 -195 274c0 210 164 436 332 436zM358 688c-129 0 -217 -141 -254 -301c-14 -58 -21 -118 -21 -176c0 -128 39 -215 131 -215c115 0 221 129 260 334c10 52 15 108 15 168
c0 112 -37 190 -131 190zM354 809c38 -1 59 -23 90 -25c22 -1 34 7 56 41l7 -2c-30 -59 -57 -85 -104 -83c-39 2 -57 24 -88 26c-22 1 -37 -9 -57 -40l-7 2c30 60 54 82 103 81z" />
    <glyph glyph-name="P" unicode="P" horiz-adv-x="505" 
d="M-68 13h29c46 0 67 15 78 61l133 535c13 50 -2 62 -51 62h-24l3 13h200c158 0 228 -55 228 -150c0 -162 -149 -212 -307 -212h-67l-62 -248c-12 -49 1 -61 53 -61h40l-3 -13h-253zM157 335h72c130 0 225 50 235 171c10 124 -69 165 -143 165h-16c-46 0 -68 -13 -79 -59z
" />
    <glyph glyph-name="Pcircle" unicode="&#x24c5;" horiz-adv-x="830" 
d="M415 700c210 0 362 -155 362 -358c0 -201 -153 -358 -362 -358c-208 0 -361 158 -361 358c0 201 153 358 361 358zM415 687c-199 0 -344 -155 -344 -345s145 -345 344 -345s345 155 345 345s-146 345 -345 345zM370 326v-129c0 -32 12 -39 42 -39h26v-14h-170v14h20
c28 0 40 7 40 39v299c0 34 -12 39 -40 39h-17v13h170c83 0 151 -35 151 -106c0 -72 -74 -116 -165 -116h-57zM370 338h57c113 0 117 85 117 99c0 21 -6 99 -114 99h-22c-31 0 -38 -8 -38 -40v-158z" />
    <glyph glyph-name="Q" unicode="Q" horiz-adv-x="574" 
d="M324 15c-12 -88 7 -133 52 -133c49 0 80 44 103 125h11c-25 -97 -52 -178 -134 -178c-45 0 -90 48 -66 171c-24 -8 -48 -13 -72 -13c-105 0 -197 103 -197 269c0 210 169 441 337 441c133 0 195 -113 195 -245c0 -204 -107 -372 -229 -437zM154 15v3c-10 7 -23 33 -23 71
c0 71 48 127 112 127c86 0 107 -87 85 -181c77 57 160 197 161 463c0 112 -32 190 -126 190c-176 0 -280 -265 -280 -482c0 -92 23 -160 71 -191zM294 15c36 124 11 186 -54 186c-52 0 -97 -44 -97 -112c0 -63 26 -93 68 -93c32 0 57 6 83 19z" />
    <glyph glyph-name="R" unicode="R" horiz-adv-x="610" 
d="M362 172c28 128 3 173 -82 173h-121l-67 -272c-13 -51 2 -60 53 -60h32l-3 -13h-245l3 13h29c46 0 67 16 78 60l134 538c12 47 -3 60 -52 60h-24l3 13h206c142 0 218 -48 218 -146c0 -96 -92 -167 -207 -183v-1c63 -17 107 -47 96 -185c-9 -115 14 -133 42 -134
c41 -1 73 48 87 126h11c-12 -113 -66 -174 -127 -174c-48 0 -94 47 -64 185zM162 358h86c124 0 202 75 211 158c8 74 -13 155 -144 155h-11c-46 0 -65 -10 -78 -61z" />
    <glyph glyph-name="R.alt" horiz-adv-x="530" 
d="M208 334h-51l-65 -261c-13 -51 2 -60 53 -60h32l-3 -13h-245l3 13h29c46 0 67 16 78 60l134 538c12 47 -3 60 -52 60h-24l3 13h206c142 0 211 -49 208 -146c-3 -96 -103 -182 -230 -200v-3c56 -27 92 -58 103 -200c6 -81 3 -122 53 -122h11l-4 -13h-114l-2 123
c-3 170 -28 211 -123 211zM160 347h83c124 0 197 86 206 169c8 74 -3 155 -134 155h-11c-46 0 -65 -10 -78 -61z" />
    <glyph glyph-name="S" unicode="S" horiz-adv-x="476" 
d="M74 35c-15 11 -31 18 -40 18c-19 0 -30 -12 -54 -62h-12l61 274h10c-17 -177 76 -267 161 -267c105 0 162 74 162 163c0 62 -41 99 -145 169c-67 45 -120 101 -120 187c0 88 62 177 174 177c49 0 77 -15 108 -45c12 -12 24 -19 35 -19c14 0 34 13 59 64h11l-62 -274h-11
c16 170 -52 265 -140 265c-96 0 -131 -83 -131 -151c0 -61 37 -100 114 -150c79 -52 147 -97 147 -194c0 -123 -83 -201 -201 -201c-61 0 -101 28 -126 46z" />
    <glyph glyph-name="Scaron" unicode="&#x160;" horiz-adv-x="476" 
d="M74 35c-15 11 -31 18 -40 18c-19 0 -30 -12 -54 -62h-12l61 274h10c-17 -177 76 -267 161 -267c105 0 162 74 162 163c0 62 -41 99 -145 169c-67 45 -120 101 -120 187c0 88 62 177 174 177c49 0 77 -15 108 -45c12 -12 24 -19 35 -19c14 0 34 13 59 64h11l-62 -274h-11
c16 170 -52 265 -140 265c-96 0 -131 -83 -131 -151c0 -61 37 -100 114 -150c79 -52 147 -97 147 -194c0 -123 -83 -201 -201 -201c-61 0 -101 28 -126 46zM429 867l-113 -146h-36l-42 143l5 3l70 -91l111 93z" />
    <glyph glyph-name="T" unicode="T" horiz-adv-x="522" 
d="M45 13h40c51 0 70 10 83 61l150 597h-33c-139 0 -160 -62 -230 -249h-11l77 262h452l-55 -262h-11c22 176 44 249 -104 249h-32l-150 -597c-12 -49 4 -61 49 -61h45l-3 -13h-270z" />
    <glyph glyph-name="Thorn" unicode="&#xde;" horiz-adv-x="505" 
d="M329 684l-3 -13h-22c-48 0 -67 -12 -79 -62l-13 -55h55c123 0 228 -37 228 -150c0 -162 -160 -212 -318 -212h-56l-29 -118c-12 -49 1 -61 53 -61h40l-3 -13h-253l3 13h29c46 0 67 15 78 61l133 535c13 50 -2 62 -51 62h-24l3 13h229zM184 205c130 0 237 43 247 171
c10 124 -69 165 -143 165h-16c-46 0 -68 -13 -79 -59l-69 -277h60z" />
    <glyph glyph-name="U" unicode="U" horiz-adv-x="607" 
d="M68 238l93 373c12 47 -1 60 -53 60h-20l3 13h233l-3 -13h-28c-46 0 -66 -10 -79 -60l-96 -386c-9 -36 -14 -67 -14 -91c0 -83 39 -129 135 -129c111 0 177 51 221 227l79 314c23 91 8 125 -60 125h-9l3 13h214l-4 -13h-20c-71 0 -85 -35 -107 -125l-79 -317
c-45 -181 -120 -240 -238 -240c-125 0 -183 62 -183 164c0 20 5 58 12 85z" />
    <glyph glyph-name="Uacute" unicode="&#xda;" horiz-adv-x="607" 
d="M68 238l93 373c12 47 -1 60 -53 60h-20l3 13h233l-3 -13h-28c-46 0 -66 -10 -79 -60l-96 -386c-9 -36 -14 -67 -14 -91c0 -83 39 -129 135 -129c111 0 177 51 221 227l79 314c23 91 8 125 -60 125h-9l3 13h214l-4 -13h-20c-71 0 -85 -35 -107 -125l-79 -317
c-45 -181 -120 -240 -238 -240c-125 0 -183 62 -183 164c0 20 5 58 12 85zM385 719l-4 4l72 94c16 21 28 36 45 36c19 0 30 -14 30 -28s-11 -28 -36 -43z" />
    <glyph glyph-name="Ucircumflex" unicode="&#xdb;" horiz-adv-x="607" 
d="M68 238l93 373c12 47 -1 60 -53 60h-20l3 13h233l-3 -13h-28c-46 0 -66 -10 -79 -60l-96 -386c-9 -36 -14 -67 -14 -91c0 -83 39 -129 135 -129c111 0 177 51 221 227l79 314c23 91 8 125 -60 125h-9l3 13h214l-4 -13h-20c-71 0 -85 -35 -107 -125l-79 -317
c-45 -181 -120 -240 -238 -240c-125 0 -183 62 -183 164c0 20 5 58 12 85zM314 717l113 146h36l42 -143l-5 -3l-70 91l-111 -93z" />
    <glyph glyph-name="Udieresis" unicode="&#xdc;" horiz-adv-x="607" 
d="M68 238l93 373c12 47 -1 60 -53 60h-20l3 13h233l-3 -13h-28c-46 0 -66 -10 -79 -60l-96 -386c-9 -36 -14 -67 -14 -91c0 -83 39 -129 135 -129c111 0 177 51 221 227l79 314c23 91 8 125 -60 125h-9l3 13h214l-4 -13h-20c-71 0 -85 -35 -107 -125l-79 -317
c-45 -181 -120 -240 -238 -240c-125 0 -183 62 -183 164c0 20 5 58 12 85zM441 784c0 23 18 40 40 40s41 -17 41 -40s-19 -40 -41 -40s-40 17 -40 40zM299 784c0 23 18 40 40 40s41 -17 41 -40s-19 -40 -41 -40s-40 17 -40 40z" />
    <glyph glyph-name="Ugrave" unicode="&#xd9;" horiz-adv-x="607" 
d="M68 238l93 373c12 47 -1 60 -53 60h-20l3 13h233l-3 -13h-28c-46 0 -66 -10 -79 -60l-96 -386c-9 -36 -14 -67 -14 -91c0 -83 39 -129 135 -129c111 0 177 51 221 227l79 314c23 91 8 125 -60 125h-9l3 13h214l-4 -13h-20c-71 0 -85 -35 -107 -125l-79 -317
c-45 -181 -120 -240 -238 -240c-125 0 -183 62 -183 164c0 20 5 58 12 85zM452 719l-107 63c-25 15 -36 29 -36 43s11 28 30 28c17 0 29 -15 45 -36l72 -94z" />
    <glyph glyph-name="V" unicode="V" horiz-adv-x="620" 
d="M89 684h225l-4 -13h-25c-63 0 -85 -14 -76 -112l45 -499l279 461c24 40 48 92 48 115c0 22 -10 35 -51 35h-13l4 13h182l-3 -13c-61 -4 -74 -27 -119 -101l-357 -583h-8l-60 607c-6 56 -14 74 -70 77z" />
    <glyph glyph-name="W" unicode="W" horiz-adv-x="854" 
d="M449 432l-253 -445h-8l-26 594c-3 70 -11 87 -76 90l3 13h201l-4 -13h-6c-66 0 -72 -19 -69 -96l19 -502l217 383l-6 133c-3 70 -17 79 -72 82l4 13h216l-4 -13h-26c-64 0 -73 -24 -70 -94l24 -508l247 443c30 54 51 103 51 125s-13 34 -50 34h-15l3 13h188l-4 -12
c-63 -4 -85 -36 -125 -106l-327 -579h-8z" />
    <glyph glyph-name="X" unicode="X" horiz-adv-x="584" 
d="M304 382l136 175c42 54 48 69 48 87s-19 27 -50 27h-16l3 13h203l-3 -13c-67 -3 -91 -19 -155 -100l-161 -202l114 -294c12 -30 24 -62 67 -62h6l-4 -13h-204l3 13h29c41 0 55 9 55 28c0 9 -2 20 -7 32l-97 255l-158 -202c-35 -44 -50 -67 -50 -84c0 -19 19 -29 52 -29
h18l-3 -13h-207l3 13c67 4 96 28 155 101l185 228l-102 267c-15 38 -26 62 -67 62h-5l3 13h201l-3 -13h-25c-40 0 -57 -7 -57 -26c0 -11 5 -26 8 -34z" />
    <glyph glyph-name="Y" unicode="Y" horiz-adv-x="551" 
d="M299 285l195 274c34 48 45 70 45 84c0 20 -22 28 -54 28h-15l3 13h171l-4 -13c-54 -4 -72 -30 -135 -118l-201 -279l-47 -190c-15 -60 -3 -71 45 -71h41l-3 -13h-255l3 13h38c45 0 64 13 78 71l47 189l-95 336c-11 38 -25 62 -74 62h-4l3 13h205l-3 -13h-25
c-48 0 -60 -18 -48 -61z" />
    <glyph glyph-name="Yacute" unicode="&#xdd;" horiz-adv-x="551" 
d="M299 285l195 274c34 48 45 70 45 84c0 20 -22 28 -54 28h-15l3 13h171l-4 -13c-54 -4 -72 -30 -135 -118l-201 -279l-47 -190c-15 -60 -3 -71 45 -71h41l-3 -13h-255l3 13h38c45 0 64 13 78 71l47 189l-95 336c-11 38 -25 62 -74 62h-4l3 13h205l-3 -13h-25
c-48 0 -60 -18 -48 -61zM352 723l-4 4l72 94c16 21 28 36 45 36c19 0 30 -14 30 -28s-11 -28 -36 -43z" />
    <glyph glyph-name="Ydieresis" unicode="&#x178;" horiz-adv-x="551" 
d="M299 285l195 274c34 48 45 70 45 84c0 20 -22 28 -54 28h-15l3 13h171l-4 -13c-54 -4 -72 -30 -135 -118l-201 -279l-47 -190c-15 -60 -3 -71 45 -71h41l-3 -13h-255l3 13h38c45 0 64 13 78 71l47 189l-95 336c-11 38 -25 62 -74 62h-4l3 13h205l-3 -13h-25
c-48 0 -60 -18 -48 -61zM411 787c0 23 18 40 40 40s41 -17 41 -40s-19 -40 -41 -40s-40 17 -40 40zM269 787c0 23 18 40 40 40s41 -17 41 -40s-19 -40 -41 -40s-40 17 -40 40z" />
    <glyph glyph-name="Z" unicode="Z" horiz-adv-x="510" 
d="M488 671h-165c-146 0 -187 -58 -247 -232h-10l70 245h413l-3 -13l-540 -658h179c136 0 178 63 247 253h12l-81 -266h-420l4 13z" />
    <glyph glyph-name="Zcaron" unicode="&#x17d;" horiz-adv-x="510" 
d="M488 671h-165c-146 0 -187 -58 -247 -232h-10l70 245h413l-3 -13l-540 -658h179c136 0 178 63 247 253h12l-81 -266h-420l4 13zM465 867l-113 -146h-36l-42 143l5 3l70 -91l111 93z" />
    <glyph glyph-name="a" unicode="a" horiz-adv-x="442" 
d="M95 -6c-61 0 -102 48 -102 145c0 157 116 285 206 285c62 0 87 -51 86 -108h4c13 19 51 69 74 110l8 -2c-20 -51 -73 -242 -92 -313c-6 -24 -14 -58 -14 -71c0 -14 2 -27 18 -27c20 0 58 40 97 117l9 -6c-38 -75 -82 -130 -126 -130c-36 0 -39 29 -39 48c0 16 6 46 12 63
h-2c-39 -72 -86 -111 -139 -111zM206 409c-92 0 -166 -155 -166 -284c0 -77 14 -115 61 -115c106 0 174 191 174 289c0 61 -15 110 -69 110z" />
    <glyph glyph-name="aacute" unicode="&#xe1;" horiz-adv-x="442" 
d="M95 -6c-61 0 -102 48 -102 145c0 157 116 285 206 285c62 0 87 -51 86 -108h4c13 19 51 69 74 110l8 -2c-20 -51 -73 -242 -92 -313c-6 -24 -14 -58 -14 -71c0 -14 2 -27 18 -27c20 0 58 40 97 117l9 -6c-38 -75 -82 -130 -126 -130c-36 0 -39 29 -39 48c0 16 6 46 12 63
h-2c-39 -72 -86 -111 -139 -111zM206 409c-92 0 -166 -155 -166 -284c0 -77 14 -115 61 -115c106 0 174 191 174 289c0 61 -15 110 -69 110zM196 466l-4 4l72 94c16 21 28 36 45 36c19 0 30 -14 30 -28s-11 -28 -36 -43z" />
    <glyph glyph-name="acircumflex" unicode="&#xe2;" horiz-adv-x="442" 
d="M95 -6c-61 0 -102 48 -102 145c0 157 116 285 206 285c62 0 87 -51 86 -108h4c13 19 51 69 74 110l8 -2c-20 -51 -73 -242 -92 -313c-6 -24 -14 -58 -14 -71c0 -14 2 -27 18 -27c20 0 58 40 97 117l9 -6c-38 -75 -82 -130 -126 -130c-36 0 -39 29 -39 48c0 16 6 46 12 63
h-2c-39 -72 -86 -111 -139 -111zM206 409c-92 0 -166 -155 -166 -284c0 -77 14 -115 61 -115c106 0 174 191 174 289c0 61 -15 110 -69 110zM115 460l113 146h36l42 -143l-5 -3l-70 91l-111 -93z" />
    <glyph glyph-name="acute" unicode="&#xb4;" 
d="M278 466l-4 4l72 94c16 21 28 36 45 36c19 0 30 -14 30 -28s-11 -28 -36 -43z" />
    <glyph glyph-name="adieresis" unicode="&#xe4;" horiz-adv-x="442" 
d="M95 -6c-61 0 -102 48 -102 145c0 157 116 285 206 285c62 0 87 -51 86 -108h4c13 19 51 69 74 110l8 -2c-20 -51 -73 -242 -92 -313c-6 -24 -14 -58 -14 -71c0 -14 2 -27 18 -27c20 0 58 40 97 117l9 -6c-38 -75 -82 -130 -126 -130c-36 0 -39 29 -39 48c0 16 6 46 12 63
h-2c-39 -72 -86 -111 -139 -111zM206 409c-92 0 -166 -155 -166 -284c0 -77 14 -115 61 -115c106 0 174 191 174 289c0 61 -15 110 -69 110zM248 530c0 23 18 40 40 40s41 -17 41 -40s-19 -40 -41 -40s-40 17 -40 40zM106 530c0 23 18 40 40 40s41 -17 41 -40
s-19 -40 -41 -40s-40 17 -40 40z" />
    <glyph glyph-name="ae" unicode="&#xe6;" horiz-adv-x="580" 
d="M217 132h-2c-41 -93 -101 -138 -161 -138c-52 0 -83 32 -83 82c0 97 91 140 265 176l6 23c30 115 -6 144 -68 144c-47 0 -86 -26 -86 -39c0 -10 6 -10 13 -15c13 -10 17 -22 17 -33c0 -28 -20 -40 -37 -40c-21 0 -39 17 -39 42c0 46 49 94 140 94c65 0 100 -32 110 -83
c50 57 102 83 155 83c58 0 93 -31 93 -86c0 -72 -83 -134 -271 -166c-2 -10 -3 -37 -3 -48c0 -97 60 -114 87 -114c65 0 112 37 154 93l8 -6c-51 -69 -94 -107 -168 -107c-66 0 -125 44 -130 138zM270 188c123 23 221 55 221 157c0 65 -30 74 -54 74
c-59 0 -149 -90 -167 -231zM220 189l13 52c-157 -29 -220 -80 -220 -152c0 -52 29 -70 64 -70c60 0 121 74 143 170z" />
    <glyph glyph-name="agrave" unicode="&#xe0;" horiz-adv-x="442" 
d="M95 -6c-61 0 -102 48 -102 145c0 157 116 285 206 285c62 0 87 -51 86 -108h4c13 19 51 69 74 110l8 -2c-20 -51 -73 -242 -92 -313c-6 -24 -14 -58 -14 -71c0 -14 2 -27 18 -27c20 0 58 40 97 117l9 -6c-38 -75 -82 -130 -126 -130c-36 0 -39 29 -39 48c0 16 6 46 12 63
h-2c-39 -72 -86 -111 -139 -111zM206 409c-92 0 -166 -155 -166 -284c0 -77 14 -115 61 -115c106 0 174 191 174 289c0 61 -15 110 -69 110zM285 466l-107 63c-25 15 -36 29 -36 43s11 28 30 28c17 0 29 -15 45 -36l72 -94z" />
    <glyph glyph-name="ampersand" unicode="&#x26;" horiz-adv-x="598" 
d="M307 68c-56 -56 -109 -78 -155 -78c-105 0 -144 79 -144 148c0 147 100 213 213 267c-1 12 -1 19 -1 27c3 183 82 262 172 262c52 0 84 -34 84 -86c0 -72 -56 -123 -211 -196c7 -96 37 -217 72 -305c55 67 117 173 120 241c1 31 -34 41 -83 42l3 12h219l-3 -12
c-73 1 -101 -24 -125 -82c-39 -91 -83 -162 -127 -210c27 -54 55 -80 88 -80c49 0 85 47 102 124h10c-19 -99 -65 -150 -134 -150c-40 0 -75 30 -100 76zM264 422c145 66 180 122 181 186c1 51 -20 77 -51 77c-87 0 -130 -100 -131 -205c0 -17 -1 -36 1 -58zM302 77
c-45 86 -72 225 -80 318c-100 -53 -166 -130 -166 -248c0 -62 28 -130 110 -130c49 0 92 22 136 60z" />
    <glyph glyph-name="apple" unicode="&#xf8ff;" horiz-adv-x="859" 
d="M577 693c44 0 77 -28 77 -59c0 -22 -18 -43 -43 -43s-45 18 -45 40c0 10 5 26 12 30c16 15 6 22 -5 24c-47 2 -99 -40 -99 -121c0 -86 102 -177 192 -177c83 0 124 48 123 93c-1 8 -11 21 -27 5c-5 -6 -20 -11 -31 -11c-22 0 -41 18 -41 43c0 23 22 40 44 40
c33 0 62 -31 62 -73c0 -65 -68 -125 -149 -125c-112 0 -199 84 -199 191c0 80 62 143 129 143zM282 693c67 0 129 -63 129 -143c0 -107 -87 -191 -199 -191c-81 0 -149 60 -149 125c0 42 29 73 62 73c22 0 44 -17 44 -40c0 -25 -19 -43 -41 -43c-11 0 -26 5 -31 11
c-17 16 -26 3 -27 -5c-2 -45 40 -93 123 -93c90 0 192 91 192 177c0 81 -52 123 -99 121c-11 -2 -21 -9 -5 -24c7 -4 12 -20 12 -30c0 -22 -20 -40 -45 -40s-43 21 -43 43c0 31 33 59 77 59zM577 -9c-67 0 -129 63 -129 143c0 107 87 191 199 191c81 0 149 -60 149 -125
c0 -42 -29 -73 -62 -73c-22 0 -44 17 -44 40c0 25 19 43 41 43c11 0 26 -5 31 -11c16 -16 26 -3 27 5c1 45 -40 93 -123 93c-90 0 -192 -91 -192 -177c0 -81 52 -123 99 -121c12 2 21 9 5 24c-7 4 -12 20 -12 30c0 22 20 40 45 40s43 -21 43 -43c0 -31 -33 -59 -77 -59z
M282 -9c-44 0 -77 28 -77 59c0 22 18 43 43 43s45 -18 45 -40c0 -10 -5 -26 -12 -30c-16 -15 -6 -22 5 -24c47 -2 99 40 99 121c0 86 -102 177 -192 177c-83 0 -125 -48 -123 -93c1 -8 10 -21 27 -5c5 6 20 11 31 11c22 0 41 -18 41 -43c0 -23 -22 -40 -44 -40
c-33 0 -62 31 -62 73c0 65 68 125 149 125c112 0 199 -84 199 -191c0 -80 -62 -143 -129 -143z" />
    <glyph glyph-name="approxequal" unicode="&#x2248;" horiz-adv-x="463" 
d="M45 143l178 179l-181 180l9 9l181 -181l181 181l8 -9l-180 -180l178 -179l-9 -9l-178 179l-179 -179z" />
    <glyph glyph-name="aring" unicode="&#xe5;" horiz-adv-x="442" 
d="M95 -6c-61 0 -102 48 -102 145c0 157 116 285 206 285c62 0 87 -51 86 -108h4c13 19 51 69 74 110l8 -2c-20 -51 -73 -242 -92 -313c-6 -24 -14 -58 -14 -71c0 -14 2 -27 18 -27c20 0 58 40 97 117l9 -6c-38 -75 -82 -130 -126 -130c-36 0 -39 29 -39 48c0 16 6 46 12 63
h-2c-39 -72 -86 -111 -139 -111zM206 409c-92 0 -166 -155 -166 -284c0 -77 14 -115 61 -115c106 0 174 191 174 289c0 61 -15 110 -69 110zM244 625c48 0 84 -39 84 -85c0 -47 -37 -85 -84 -85s-84 38 -84 85s37 85 84 85zM244 610c-36 0 -62 -30 -62 -70
c0 -38 27 -70 62 -70c38 0 62 32 62 70c0 40 -25 70 -62 70z" />
    <glyph glyph-name="asciicircum" unicode="^" horiz-adv-x="459" 
d="M108 408l-11 4l151 275h29l151 -275l-11 -4l-155 219z" />
    <glyph glyph-name="asciitilde" unicode="~" horiz-adv-x="331" 
d="M8 171l-4 2c11 57 33 87 84 87c40 0 79 -18 111 -18c29 0 45 2 61 43l5 -2c-12 -64 -38 -87 -84 -87c-39 0 -81 19 -111 19s-46 -4 -62 -44z" />
    <glyph glyph-name="asterisk" unicode="*" horiz-adv-x="467" 
d="M153 379c-7 8 5 27 23 43c21 19 84 63 106 85c-27 14 -105 43 -129 55s-35 24 -30 33c5 8 23 6 46 -8s87 -59 115 -73c4 30 7 109 11 137c4 26 13 41 23 39s11 -18 7 -45c-4 -28 -29 -103 -33 -132c29 2 104 26 132 30c25 4 44 1 45 -10c1 -9 -17 -16 -43 -20
c-28 -4 -103 -1 -133 -7c13 -26 55 -94 68 -119c12 -23 15 -42 7 -46c-9 -4 -21 8 -32 33s-35 101 -49 127c-21 -20 -73 -82 -93 -101c-17 -17 -35 -28 -41 -21z" />
    <glyph glyph-name="at" unicode="@" horiz-adv-x="844" 
d="M439 -154c-199 0 -393 115 -393 381c0 249 199 423 412 423c183 0 340 -113 340 -313c0 -164 -100 -283 -223 -283c-45 0 -92 35 -74 111h-4c-35 -64 -74 -111 -143 -111c-59 0 -113 44 -113 134c0 120 97 261 204 261c61 0 88 -44 96 -92h3l22 87h46l-72 -283
c-18 -66 2 -92 47 -92c97 0 194 119 194 269c0 189 -143 299 -332 299c-177 0 -386 -165 -386 -408c0 -253 186 -367 378 -367c114 0 205 41 280 100l7 -12c-76 -59 -164 -104 -289 -104zM372 75c80 0 148 127 148 252c0 75 -23 111 -77 111c-95 0 -148 -161 -148 -241
c0 -79 22 -122 77 -122z" />
    <glyph glyph-name="atilde" unicode="&#xe3;" horiz-adv-x="442" 
d="M95 -6c-61 0 -102 48 -102 145c0 157 116 285 206 285c62 0 87 -51 86 -108h4c13 19 51 69 74 110l8 -2c-20 -51 -73 -242 -92 -313c-6 -24 -14 -58 -14 -71c0 -14 2 -27 18 -27c20 0 58 40 97 117l9 -6c-38 -75 -82 -130 -126 -130c-36 0 -39 29 -39 48c0 16 6 46 12 63
h-2c-39 -72 -86 -111 -139 -111zM206 409c-92 0 -166 -155 -166 -284c0 -77 14 -115 61 -115c106 0 174 191 174 289c0 61 -15 110 -69 110zM205 555c38 -1 59 -23 90 -25c22 -1 34 7 56 41l7 -2c-30 -59 -57 -85 -104 -83c-39 2 -57 24 -88 26c-22 1 -37 -9 -57 -40l-7 2
c30 60 54 82 103 81z" />
    <glyph glyph-name="b" unicode="b" horiz-adv-x="402" 
d="M90 325l3 -3c41 66 94 102 144 102c55 0 101 -37 101 -132c0 -168 -110 -300 -222 -300c-91 0 -146 67 -96 242l111 385c4 15 7 26 7 33c-1 19 -13 23 -43 23h-20l3 9l123 14l-64 -223c-10 -37 -36 -120 -47 -150zM119 1c77 0 170 129 170 323c0 66 -27 83 -62 83
c-83 0 -178 -130 -184 -287c-3 -90 36 -119 76 -119z" />
    <glyph glyph-name="backslash" unicode="\" horiz-adv-x="336" 
d="M110 689h14l112 -774h-13z" />
    <glyph glyph-name="bar" unicode="|" horiz-adv-x="219" 
d="M103 -204v893h13v-893h-13z" />
    <glyph glyph-name="braceleft" unicode="{" horiz-adv-x="368" 
d="M213 -130c-99 0 -177 29 -154 141c8 39 40 98 48 130c21 87 -7 133 -98 129l3 13c89 -3 144 55 166 141c8 32 7 85 14 124c18 105 125 136 224 136h13l-4 -13c-104 0 -162 -31 -183 -116c-12 -47 -7 -85 -17 -125c-26 -105 -80 -136 -175 -151l-1 -4
c90 -9 125 -53 100 -152c-10 -40 -34 -78 -46 -124c-17 -66 21 -116 126 -116l-3 -13h-13z" />
    <glyph glyph-name="braceright" unicode="}" horiz-adv-x="368" 
d="M123 684c99 0 177 -29 154 -141c-8 -39 -40 -98 -48 -130c-21 -87 7 -133 98 -129l-3 -13c-89 3 -144 -55 -166 -141c-8 -32 -7 -85 -14 -124c-18 -105 -125 -136 -224 -136h-13l4 13c104 0 162 31 183 116c12 47 7 85 17 125c26 105 80 136 175 151l1 4
c-90 9 -125 53 -100 152c10 40 34 76 46 124c17 66 -21 116 -126 116l3 13h13z" />
    <glyph glyph-name="bracketleft" unicode="[" horiz-adv-x="273" 
d="M151 684h168l-4 -13h-121l-195 -788h123l-4 -13h-170z" />
    <glyph glyph-name="bracketright" unicode="]" horiz-adv-x="273" 
d="M90 -130h-168l4 13h121l195 788h-123l4 13h170z" />
    <glyph glyph-name="breve" unicode="&#x2d8;" 
d="M305 464c-77 0 -98 60 -89 124l9 3c4 -49 29 -83 89 -83c59 0 103 34 129 83l9 -3c-23 -65 -71 -124 -147 -124z" />
    <glyph glyph-name="brokenbar" unicode="&#xa6;" horiz-adv-x="219" 
d="M103 318v371h13v-371h-13zM103 167h13v-371h-13v371z" />
    <glyph glyph-name="bullet" unicode="&#x2022;" horiz-adv-x="440" 
d="M219 224c-70 0 -124 53 -124 124c0 70 54 125 124 125s125 -55 125 -125c0 -71 -55 -124 -125 -124z" />
    <glyph glyph-name="c" unicode="c" horiz-adv-x="335" 
d="M-9 142c0 140 102 286 224 286c67 0 99 -40 99 -82c0 -41 -28 -54 -47 -54c-22 0 -36 15 -36 36c0 19 17 38 44 38c10 0 14 4 14 12c0 18 -27 39 -70 39c-103 0 -179 -146 -179 -292c0 -79 32 -114 90 -114c47 0 88 28 128 86l8 -5c-39 -67 -93 -100 -152 -100
c-62 0 -123 54 -123 150z" />
    <glyph glyph-name="caron" unicode="&#x2c7;" 
d="M449 610l-113 -146h-36l-42 143l5 3l70 -91l111 93z" />
    <glyph glyph-name="ccedilla" unicode="&#xe7;" horiz-adv-x="335" 
d="M82 -217c-42 0 -71 11 -102 39l8 11c17 -15 45 -30 79 -30c46 0 77 28 80 65c3 32 -17 50 -40 50c-7 0 -16 -1 -23 -3l26 77c-61 3 -119 56 -119 150c0 140 102 286 224 286c67 0 99 -40 99 -82c0 -41 -28 -54 -47 -54c-22 0 -36 15 -36 36c0 19 17 38 44 38
c10 0 14 4 14 12c0 18 -27 39 -70 39c-103 0 -179 -146 -179 -292c0 -79 32 -114 90 -114c47 0 88 28 128 86l8 -5c-37 -64 -88 -97 -143 -100l-21 -64c3 1 15 4 32 4c29 0 61 -21 61 -63c0 -58 -61 -86 -113 -86z" />
    <glyph glyph-name="cedilla" unicode="&#xb8;" 
d="M163 -217c-42 0 -71 11 -102 39l8 11c17 -15 45 -30 79 -30c46 0 77 28 80 65c3 32 -17 50 -40 50c-7 0 -16 -1 -23 -3l27 80h13l-22 -67c3 1 15 4 32 4c29 0 61 -21 61 -63c0 -58 -61 -86 -113 -86z" />
    <glyph glyph-name="cent" unicode="&#xa2;" horiz-adv-x="343" 
d="M261 424c39 -10 63 -44 63 -82c0 -33 -23 -51 -45 -51c-23 0 -40 19 -40 41c0 20 13 36 29 40c20 6 29 -7 29 6c0 14 -15 30 -40 37l-187 -373c19 -29 50 -35 70 -35c47 0 88 27 128 85l8 -5c-42 -71 -96 -100 -141 -100c-30 0 -57 9 -79 26l-74 -147h-12l77 154
c-28 26 -46 65 -46 117c0 140 102 291 234 291c5 0 11 0 15 -1l48 95h12zM246 418c-5 1 -10 1 -16 1c-100 0 -180 -153 -180 -299c0 -29 5 -51 13 -67z" />
    <glyph glyph-name="circumflex" unicode="&#x2c6;" 
d="M206 460l113 146h36l42 -143l-5 -3l-70 91l-111 -93z" />
    <glyph glyph-name="colon" unicode=":" horiz-adv-x="199" 
d="M145 346c0 -26 -18 -44 -44 -44c-25 0 -43 18 -43 44c0 25 18 43 43 43c26 0 44 -18 44 -43zM70 32c0 -26 -18 -44 -44 -44c-25 0 -43 18 -43 44c0 25 18 43 43 43c26 0 44 -18 44 -43z" />
    <glyph glyph-name="comma" unicode="," horiz-adv-x="179" 
d="M-60 -160c87 58 121 117 121 146c0 19 -16 3 -36 3c-25 0 -37 16 -37 41c0 26 19 45 45 45c25 0 44 -27 44 -65c0 -67 -45 -122 -132 -178z" />
    <glyph glyph-name="copyright" unicode="&#xa9;" horiz-adv-x="830" 
d="M415 700c210 0 362 -155 362 -358c0 -201 -153 -358 -362 -358c-208 0 -361 158 -361 358c0 201 153 358 361 358zM415 687c-199 0 -344 -155 -344 -345s145 -345 344 -345s345 155 345 345s-146 345 -345 345zM564 553l5 -164h-10c-19 106 -81 155 -150 155
c-86 0 -121 -96 -121 -197c0 -98 43 -199 126 -199c93 0 138 68 156 151h10c-18 -107 -82 -163 -167 -163c-98 0 -179 91 -179 208c0 122 82 209 176 209c37 0 62 -13 90 -30c15 -9 26 -10 31 -10c13 0 20 15 25 40h8z" />
    <glyph glyph-name="currency" unicode="&#xa4;" horiz-adv-x="443" 
d="M99 377h-54l3 12h55c47 153 147 273 260 273c78 0 115 -50 113 -100s-28 -70 -53 -70c-26 0 -40 15 -40 39c0 29 22 42 45 45c13 2 24 -5 25 16c1 19 -30 62 -91 62c-96 0 -164 -128 -205 -265h178l-3 -12h-178c-6 -19 -10 -34 -14 -54c-3 -13 -7 -31 -9 -44h178l-3 -12
h-176c-21 -144 -11 -264 75 -264c74 0 122 46 164 140h13c-42 -101 -96 -156 -181 -156c-103 0 -149 110 -127 280h-58l3 12h56c3 17 7 40 12 58c3 14 7 27 12 40z" />
    <glyph glyph-name="d" unicode="d" horiz-adv-x="447" 
d="M239 107h-2c-39 -72 -85 -113 -138 -113c-61 0 -103 50 -103 147c0 154 104 283 201 283c58 0 90 -41 92 -114h6l34 128l49 181c3 12 6 25 6 33c0 19 -13 23 -43 23h-27l3 9l132 14l-163 -583c-7 -24 -14 -56 -14 -69c0 -14 2 -27 18 -27c20 0 53 34 94 110l10 -7
c-38 -75 -82 -128 -126 -128c-36 0 -40 30 -40 49c0 16 5 47 11 64zM202 409c-92 0 -159 -153 -159 -282c0 -77 21 -116 66 -116c69 0 168 127 168 288c0 61 -21 110 -75 110z" />
    <glyph glyph-name="dagger" unicode="&#x2020;" horiz-adv-x="451" 
d="M259 488c-47 0 -60 -5 -81 -12c-19 -6 -39 -12 -48 -12c-20 0 -30 11 -29 28c1 19 17 28 40 28c9 0 27 -5 44 -11c18 -6 29 -12 76 -12c18 71 16 104 16 125c0 19 1 30 2 38c4 23 16 36 32 36c13 0 22 -10 22 -24c0 -13 -6 -31 -19 -55c-11 -20 -28 -55 -44 -120
c47 0 59 6 78 12c25 8 35 11 49 11c19 0 30 -11 29 -27c-1 -19 -18 -29 -39 -29c-9 0 -27 5 -47 12c-17 6 -26 12 -72 12c-20 -79 -23 -123 -8 -156c-39 -79 -70 -159 -116 -343h-12c46 185 55 264 56 343c31 34 51 77 71 156z" />
    <glyph glyph-name="daggerdbl" unicode="&#x2021;" horiz-adv-x="451" 
d="M193 187c-19 -70 -16 -104 -16 -125c0 -19 -1 -30 -2 -38c-4 -23 -16 -36 -32 -36c-13 0 -22 10 -22 24c0 13 6 31 19 55c11 20 28 55 44 120c-47 0 -59 -6 -78 -12c-25 -8 -35 -11 -49 -11c-19 0 -30 11 -29 27c1 19 18 29 39 29c9 0 27 -5 47 -12c17 -6 26 -12 72 -12
c20 79 20 113 5 146c31 34 48 67 68 146c-47 0 -60 -5 -81 -12c-19 -6 -39 -12 -48 -12c-20 0 -30 11 -29 28c1 19 17 28 40 28c9 0 27 -5 44 -11c18 -6 29 -12 76 -12c19 70 16 104 16 125c0 19 1 30 2 38c4 23 16 36 32 36c13 0 22 -10 22 -24c0 -13 -6 -31 -19 -55
c-11 -20 -28 -55 -44 -120c48 0 59 6 78 12c25 8 35 11 49 11c19 0 30 -11 29 -27c-1 -19 -18 -29 -39 -29c-9 0 -27 5 -47 12c-17 6 -26 12 -72 12c-20 -79 -20 -113 -5 -146c-31 -34 -48 -67 -68 -146c47 0 60 5 81 12c19 6 39 12 48 12c20 0 30 -11 29 -28
c-1 -19 -17 -28 -40 -28c-9 0 -27 5 -44 11c-18 6 -29 12 -76 12z" />
    <glyph glyph-name="degree" unicode="&#xb0;" horiz-adv-x="330" 
d="M197 426c-66 0 -117 51 -117 117s51 117 117 117s117 -51 117 -117s-51 -117 -117 -117zM197 441c57 0 99 44 99 102c0 56 -42 102 -99 102s-99 -45 -99 -102s42 -102 99 -102z" />
    <glyph glyph-name="dieresis" unicode="&#xa8;" 
d="M351 530c0 23 18 40 40 40s41 -17 41 -40s-19 -40 -41 -40s-40 17 -40 40zM209 530c0 23 18 40 40 40s41 -17 41 -40s-19 -40 -41 -40s-40 17 -40 40z" />
    <glyph glyph-name="divide" unicode="&#xf7;" horiz-adv-x="463" 
d="M193 462c0 20 19 38 40 38s40 -18 40 -38s-19 -38 -40 -38s-40 18 -40 38zM45 328h372v-13h-372v13zM273 182c0 -20 -19 -38 -40 -38s-40 18 -40 38s19 40 40 40s40 -20 40 -40z" />
    <glyph glyph-name="dollar" unicode="$" horiz-adv-x="443" 
d="M95 -135l33 133c-80 9 -138 56 -136 121c1 41 28 70 59 70c24 0 41 -18 41 -40c0 -34 -28 -48 -59 -47c-3 0 -27 4 -23 -14c7 -31 51 -71 121 -79l73 292c-52 35 -110 89 -109 165c2 111 82 190 196 183l18 72h9l-18 -73c86 -9 131 -54 130 -104c-1 -44 -25 -64 -53 -64
c-23 0 -42 17 -41 40c1 28 20 44 51 46c9 1 22 5 12 24c-14 25 -53 43 -101 47l-69 -278c61 -48 131 -86 131 -179c0 -114 -98 -190 -223 -183l-33 -132h-9zM220 365l69 273c-85 4 -148 -43 -148 -138c0 -62 37 -104 79 -135zM213 296l-73 -288c88 -6 177 44 177 142
c0 66 -50 110 -104 146z" />
    <glyph glyph-name="dotaccent" unicode="&#x2d9;" 
d="M278 520c0 24 19 42 42 42s43 -18 43 -42s-20 -42 -43 -42s-42 18 -42 42z" />
    <glyph glyph-name="dotlessi" unicode="&#x131;" horiz-adv-x="231" 
d="M18 129l65 214c4 14 7 25 7 33c0 19 -14 24 -44 24h-34l3 13l124 7c0 -31 -4 -65 -24 -129l-53 -169c-6 -20 -14 -54 -14 -65c0 -18 7 -29 23 -29c20 0 53 32 92 100l9 -6c-38 -75 -77 -128 -117 -128c-30 0 -51 21 -51 57c0 21 5 48 14 78z" />
    <glyph glyph-name="e" unicode="e" horiz-adv-x="354" 
d="M43 177c-2 -10 -3 -38 -3 -49c0 -97 60 -118 87 -118c65 0 110 34 154 95l8 -6c-46 -69 -94 -107 -168 -107c-68 0 -130 50 -130 151c0 146 117 285 239 285c49 0 84 -31 84 -80c0 -78 -84 -140 -271 -171zM44 188c182 34 229 96 229 177c0 29 -15 54 -53 54
c-53 0 -146 -56 -176 -231z" />
    <glyph glyph-name="eacute" unicode="&#xe9;" horiz-adv-x="354" 
d="M43 177c-2 -10 -3 -38 -3 -49c0 -97 60 -118 87 -118c65 0 110 34 154 95l8 -6c-46 -69 -94 -107 -168 -107c-68 0 -130 50 -130 151c0 146 117 285 239 285c49 0 84 -31 84 -80c0 -78 -84 -140 -271 -171zM44 188c182 34 229 96 229 177c0 29 -15 54 -53 54
c-53 0 -146 -56 -176 -231zM177 466l-4 4l72 94c16 21 28 36 45 36c19 0 30 -14 30 -28s-11 -28 -36 -43z" />
    <glyph glyph-name="ecircumflex" unicode="&#xea;" horiz-adv-x="354" 
d="M43 177c-2 -10 -3 -38 -3 -49c0 -97 60 -118 87 -118c65 0 110 34 154 95l8 -6c-46 -69 -94 -107 -168 -107c-68 0 -130 50 -130 151c0 146 117 285 239 285c49 0 84 -31 84 -80c0 -78 -84 -140 -271 -171zM44 188c182 34 229 96 229 177c0 29 -15 54 -53 54
c-53 0 -146 -56 -176 -231zM116 460l113 146h36l42 -143l-5 -3l-70 91l-111 -93z" />
    <glyph glyph-name="edieresis" unicode="&#xeb;" horiz-adv-x="354" 
d="M43 177c-2 -10 -3 -38 -3 -49c0 -97 60 -118 87 -118c65 0 110 34 154 95l8 -6c-46 -69 -94 -107 -168 -107c-68 0 -130 50 -130 151c0 146 117 285 239 285c49 0 84 -31 84 -80c0 -78 -84 -140 -271 -171zM44 188c182 34 229 96 229 177c0 29 -15 54 -53 54
c-53 0 -146 -56 -176 -231zM256 530c0 23 18 40 40 40s41 -17 41 -40s-19 -40 -41 -40s-40 17 -40 40zM114 530c0 23 18 40 40 40s41 -17 41 -40s-19 -40 -41 -40s-40 17 -40 40z" />
    <glyph glyph-name="egrave" unicode="&#xe8;" horiz-adv-x="354" 
d="M43 177c-2 -10 -3 -38 -3 -49c0 -97 60 -118 87 -118c65 0 110 34 154 95l8 -6c-46 -69 -94 -107 -168 -107c-68 0 -130 50 -130 151c0 146 117 285 239 285c49 0 84 -31 84 -80c0 -78 -84 -140 -271 -171zM44 188c182 34 229 96 229 177c0 29 -15 54 -53 54
c-53 0 -146 -56 -176 -231zM272 466l-107 63c-25 15 -36 29 -36 43s11 28 30 28c17 0 29 -15 45 -36l72 -94z" />
    <glyph glyph-name="eight" unicode="8" horiz-adv-x="435" 
d="M194 333c-51 38 -93 80 -93 152c0 111 83 178 181 178c104 0 154 -64 154 -134c0 -90 -93 -139 -167 -172c60 -38 108 -81 108 -160c0 -112 -76 -212 -208 -212c-99 0 -171 73 -171 149c0 110 99 162 196 199zM262 362c91 46 132 120 132 189c0 57 -48 104 -112 104
c-84 0 -148 -61 -148 -139c0 -66 54 -107 128 -154zM201 329c-124 -63 -160 -132 -160 -216c0 -63 51 -120 127 -120c99 0 174 69 174 162c0 83 -75 127 -141 174z" />
    <glyph glyph-name="ellipsis" unicode="&#x2026;" horiz-adv-x="523" 
d="M414 30c0 -24 -17 -42 -42 -42c-24 0 -41 18 -41 42s17 42 41 42c25 0 42 -18 42 -42zM241 30c0 -24 -19 -42 -43 -42s-42 18 -42 42s18 42 42 42s43 -18 43 -42zM66 30c0 -24 -17 -42 -43 -42c-23 0 -40 18 -40 42s17 42 40 42c26 0 43 -18 43 -42z" />
    <glyph glyph-name="emdash" unicode="&#x2014;" horiz-adv-x="844" 
d="M-9 239h794v-18h-794v18z" />
    <glyph glyph-name="endash" unicode="&#x2013;" horiz-adv-x="422" 
d="M-9 239h372v-18h-372v18z" />
    <glyph glyph-name="equal" unicode="=" horiz-adv-x="463" 
d="M49 399v13h364v-13h-364zM49 240v13h364v-13h-364z" />
    <glyph glyph-name="eth" unicode="&#xf0;" horiz-adv-x="390" 
d="M298 368c1 87 -14 163 -38 227l-133 -72l-3 9l133 71c-14 33 -34 67 -56 91l6 6c20 -18 46 -46 71 -85l120 63l3 -9l-118 -62c33 -72 63 -163 56 -291c-9 -170 -117 -324 -226 -324c-78 0 -122 58 -122 162c0 139 103 274 216 274c47 0 67 -22 91 -60zM113 1
c92 0 169 170 169 314c0 59 -24 104 -71 104c-109 0 -172 -156 -172 -302c0 -83 33 -116 74 -116z" />
    <glyph glyph-name="exclam" unicode="!" horiz-adv-x="234" 
d="M65 189c42 166 67 289 70 363c2 37 4 73 10 95c7 27 22 50 52 50c21 0 32 -15 32 -39c0 -26 -15 -60 -33 -98c-36 -73 -79 -206 -119 -371h-12zM80 32c0 -26 -18 -44 -44 -44c-25 0 -43 18 -43 44c0 25 18 43 43 43c26 0 44 -18 44 -43z" />
    <glyph glyph-name="exclamdown" unicode="&#xa1;" horiz-adv-x="234" 
d="M171 495c-42 -166 -67 -289 -70 -363c-2 -37 -4 -73 -10 -95c-7 -27 -22 -50 -52 -50c-21 0 -32 15 -32 39c0 26 15 60 33 98c36 73 79 206 119 371h12zM156 652c0 26 18 44 44 44c25 0 43 -18 43 -44c0 -25 -18 -43 -43 -43c-26 0 -44 18 -44 43z" />
    <glyph glyph-name="f" unicode="f" horiz-adv-x="235" 
d="M80 401h-61l3 13h61l15 62c21 87 74 221 172 221c30 0 49 -18 49 -44s-16 -44 -40 -44c-16 0 -31 12 -31 33s12 27 12 37c0 4 -5 6 -10 6c-39 0 -65 -63 -91 -169l-25 -102h96l-3 -13h-96l-54 -220c-65 -264 -111 -387 -182 -387c-37 0 -49 21 -49 41c0 25 18 42 39 42
s32 -15 32 -34s-17 -37 -2 -37s36 45 60 146z" />
    <glyph glyph-name="f_j" horiz-adv-x="405" 
d="M189 -14l97 357c4 13 7 25 7 33c0 19 -14 25 -44 25h-118l-54 -220c-65 -264 -115 -387 -178 -387c-30 0 -39 17 -39 33c0 20 16 33 30 33s27 -8 27 -26c0 -15 -12 -29 -1 -28c14 1 35 45 59 146l105 449h-61l3 13h61l15 59c29 119 111 211 201 211c52 0 92 -23 92 -53
c0 -20 -14 -34 -34 -34c-14 0 -27 13 -27 27c0 19 12 24 12 31c0 9 -9 20 -46 20c-65 0 -110 -56 -137 -162l-25 -99h102l106 6c0 -31 -5 -66 -24 -129l-30 -100c-78 -261 -113 -363 -176 -363c-30 0 -39 17 -39 33c0 20 17 33 31 33s27 -8 26 -26c0 -15 -12 -29 -1 -28
c14 1 33 46 60 146z" />
    <glyph glyph-name="five" unicode="5" horiz-adv-x="401" 
d="M-16 110c0 62 40 90 65 90c28 0 42 -18 41 -44c-1 -20 -16 -41 -47 -41c-28 0 -45 28 -45 -12c0 -52 47 -106 116 -106c129 0 183 138 183 269c0 67 -30 111 -88 113c-50 1 -101 -20 -121 -45c-8 -26 -15 -43 -27 -43c-3 0 -7 2 -7 8c0 13 10 27 26 41l95 313l5 4
c51 -21 93 -31 145 -31c44 0 72 10 97 26l3 -8c-48 -54 -94 -79 -167 -79c-33 0 -65 4 -93 14l-70 -226c23 20 71 40 120 38c66 -1 134 -56 134 -149c0 -137 -100 -255 -238 -255c-74 0 -127 56 -127 123z" />
    <glyph glyph-name="florin" unicode="&#x192;" horiz-adv-x="372" 
d="M125 385h-83l5 13h81c47 166 108 261 210 261c59 0 74 -47 73 -78c-1 -24 -19 -42 -43 -42c-21 0 -35 16 -35 31c0 14 6 31 23 36c26 7 33 -4 33 7c0 21 -20 36 -53 36c-61 0 -110 -79 -156 -251h109l-3 -13h-109c-12 -41 -25 -95 -33 -126c-90 -354 -156 -464 -234 -464
c-37 0 -55 28 -54 53c1 27 18 42 40 42c23 0 35 -17 34 -35c-2 -25 -22 -32 -23 -41c0 -3 3 -8 11 -8c51 0 77 85 107 196c11 41 34 126 61 236c9 38 26 102 39 147z" />
    <glyph glyph-name="four" unicode="4" horiz-adv-x="462" 
d="M143 13h32c46 0 58 13 69 56l24 95h-270l3 13l430 490h12l-121 -485h89l-4 -18h-89l-24 -95c-10 -42 0 -56 45 -56h23l-3 -13h-219zM371 574l-343 -392h244z" />
    <glyph glyph-name="fraction" unicode="&#x2044;" horiz-adv-x="263" 
d="M367 653h19l-501 -659h-17z" />
    <glyph glyph-name="g" unicode="g" horiz-adv-x="395" 
d="M268 404c20 35 51 81 98 81c24 0 43 -15 43 -40c0 -19 -11 -35 -30 -35c-17 0 -29 9 -29 31c0 9 5 21 -8 21c-10 0 -33 -12 -66 -65c20 -17 42 -55 42 -103c0 -93 -81 -174 -166 -174c-29 0 -56 10 -73 24c-40 -18 -53 -32 -53 -53c0 -22 39 -39 136 -55
c101 -17 142 -52 142 -109c0 -65 -74 -133 -219 -133c-115 0 -187 40 -184 104c3 58 61 108 162 118v2c-49 9 -82 31 -82 56c0 27 23 48 92 75c-31 27 -44 63 -44 105c1 100 78 174 159 174c30 0 54 -6 80 -24zM270 323c0 51 -28 96 -75 96c-71 0 -116 -96 -117 -183
c0 -65 26 -107 74 -107c73 0 118 107 118 194zM274 -90c0 66 -96 97 -189 97c-74 0 -143 -38 -146 -103c-3 -60 50 -99 148 -99c92 0 187 31 187 105z" />
    <glyph glyph-name="germandbls" unicode="&#xdf;" horiz-adv-x="445" 
d="M-105 -206c-37 0 -49 21 -49 41c0 25 21 42 41 42c17 0 30 -12 30 -34c0 -19 -17 -37 -2 -37s36 45 60 146l105 449h-61l3 13h61l15 62c28 117 93 223 184 223c71 0 96 -40 94 -105c-2 -53 -38 -99 -78 -140s-84 -61 -84 -102c0 -33 43 -63 81 -92c40 -31 80 -70 80 -128
c0 -90 -80 -143 -150 -143c-85 0 -108 46 -107 85c1 31 22 52 47 52c21 0 34 -18 34 -36c0 -19 -12 -31 -27 -36c-18 -6 -30 1 -30 -12c0 -22 36 -45 82 -45c70 0 112 54 112 113c0 40 -34 74 -70 101c-45 34 -83 60 -83 106c0 59 59 88 108 159c22 32 33 77 34 127
c1 58 -23 83 -48 83c-68 0 -92 -64 -118 -170l-82 -335c-63 -259 -111 -387 -182 -387z" />
    <glyph glyph-name="grave" unicode="`" 
d="M337 466l-107 63c-25 15 -36 29 -36 43s11 28 30 28c17 0 29 -15 45 -36l72 -94z" />
    <glyph glyph-name="greater" unicode="&#x3e;" horiz-adv-x="463" 
d="M403 321l-362 171v13l381 -180v-10l-381 -180v14z" />
    <glyph glyph-name="guillemotleft" unicode="&#xab;" horiz-adv-x="446" 
d="M311 0l-140 213l246 212h12l-196 -212l90 -213h-12zM136 0l-140 213l246 212h12l-196 -212l90 -213h-12z" />
    <glyph glyph-name="guillemotright" unicode="&#xbb;" horiz-adv-x="446" 
d="M139 0h-12l196 213l-90 212h12l140 -212zM-36 0h-12l196 213l-90 212h12l140 -212z" />
    <glyph glyph-name="guilsinglleft" unicode="&#x2039;" horiz-adv-x="271" 
d="M136 0l-140 213l246 212h12l-196 -212l90 -213h-12z" />
    <glyph glyph-name="guilsinglright" unicode="&#x203a;" horiz-adv-x="271" 
d="M-36 0h-12l196 213l-90 212h12l140 -212z" />
    <glyph glyph-name="h" unicode="h" horiz-adv-x="422" 
d="M314 262l-63 -158c-9 -22 -15 -50 -15 -60c0 -19 6 -29 22 -29c20 0 61 41 102 113l9 -6c-38 -75 -81 -128 -125 -128c-31 0 -50 21 -50 52c0 25 8 50 19 78l54 139c11 30 22 69 23 90c1 30 -8 50 -37 50c-73 0 -165 -149 -194 -251l-43 -152h-47l175 610
c16 56 13 65 -40 65h-29l3 9l139 14l-68 -237l-69 -218l3 -1c47 99 118 180 187 180c42 0 66 -26 66 -69c0 -34 -12 -66 -22 -91z" />
    <glyph glyph-name="hungarumlaut" unicode="&#x2dd;" 
d="M356 466l-4 4l68 88c15 20 26 34 42 34c18 0 28 -13 28 -26s-10 -27 -34 -41zM242 466l-4 4l67 88c16 21 27 34 43 34c18 0 28 -13 28 -26s-10 -27 -34 -41z" />
    <glyph glyph-name="hyphen" unicode="-" horiz-adv-x="277" 
d="M1 247h229l-10 -37h-229z" />
    <glyph glyph-name="i" unicode="i" horiz-adv-x="231" 
d="M93 574c0 23 17 40 40 40c22 0 40 -17 40 -40s-18 -40 -40 -40c-23 0 -40 17 -40 40zM18 129l65 214c4 14 7 25 7 33c0 19 -14 25 -44 25h-34l3 9l128 11c0 -31 -8 -66 -28 -130l-57 -183c-6 -20 -13 -52 -13 -63c0 -18 7 -29 19 -29c27 0 63 31 99 112l9 -6
c-34 -75 -77 -128 -117 -128c-30 0 -51 21 -51 57c0 21 5 48 14 78z" />
    <glyph glyph-name="iacute" unicode="&#xed;" horiz-adv-x="231" 
d="M18 129l65 214c4 14 7 25 7 33c0 19 -14 24 -44 24h-34l3 13l124 7c0 -31 -4 -65 -24 -129l-53 -169c-6 -20 -14 -54 -14 -65c0 -18 7 -29 23 -29c20 0 53 32 92 100l9 -6c-38 -75 -77 -128 -117 -128c-30 0 -51 21 -51 57c0 21 5 48 14 78zM89 466l-4 4l72 94
c16 21 28 36 45 36c19 0 30 -14 30 -28s-11 -28 -36 -43z" />
    <glyph glyph-name="icircumflex" unicode="&#xee;" horiz-adv-x="231" 
d="M18 129l65 214c4 14 7 25 7 33c0 19 -14 24 -44 24h-34l3 13l124 7c0 -31 -4 -65 -24 -129l-53 -169c-6 -20 -14 -54 -14 -65c0 -18 7 -29 23 -29c20 0 53 32 92 100l9 -6c-38 -75 -77 -128 -117 -128c-30 0 -51 21 -51 57c0 21 5 48 14 78zM11 460l113 146h36l42 -143
l-5 -3l-70 91l-111 -93z" />
    <glyph glyph-name="idieresis" unicode="&#xef;" horiz-adv-x="231" 
d="M18 129l65 214c4 14 7 25 7 33c0 19 -14 24 -44 24h-34l3 13l124 7c0 -31 -4 -65 -24 -129l-53 -169c-6 -20 -14 -54 -14 -65c0 -18 7 -29 23 -29c20 0 53 32 92 100l9 -6c-38 -75 -77 -128 -117 -128c-30 0 -51 21 -51 57c0 21 5 48 14 78zM140 530c0 23 18 40 40 40
s41 -17 41 -40s-19 -40 -41 -40s-40 17 -40 40zM-2 530c0 23 18 40 40 40s41 -17 41 -40s-19 -40 -41 -40s-40 17 -40 40z" />
    <glyph glyph-name="igrave" unicode="&#xec;" horiz-adv-x="231" 
d="M18 129l65 214c4 14 7 25 7 33c0 19 -14 24 -44 24h-34l3 13l124 7c0 -31 -4 -65 -24 -129l-53 -169c-6 -20 -14 -54 -14 -65c0 -18 7 -29 23 -29c20 0 53 32 92 100l9 -6c-38 -75 -77 -128 -117 -128c-30 0 -51 21 -51 57c0 21 5 48 14 78zM142 466l-107 63
c-25 15 -36 29 -36 43s11 28 30 28c17 0 29 -15 45 -36l72 -94z" />
    <glyph glyph-name="j" unicode="j" horiz-adv-x="210" 
d="M100 574c0 23 17 40 40 40c22 0 40 -17 40 -40s-18 -40 -40 -40c-23 0 -40 17 -40 40zM-32 -84l123 427c4 14 7 25 7 33c0 19 -14 25 -44 25h-34l3 9l130 11c0 -22 -12 -67 -30 -129l-83 -289c-41 -142 -84 -209 -155 -209c-42 0 -68 22 -68 59c0 28 20 49 41 49
c19 0 34 -12 34 -33c0 -19 -10 -29 -25 -34c-8 -2 -21 -1 -21 -13c0 -10 13 -21 38 -21c45 0 69 64 84 115z" />
    <glyph glyph-name="k" unicode="k" horiz-adv-x="390" 
d="M-31 0l174 606c17 61 13 69 -40 69h-30l3 9l141 14l-76 -262l-58 -188c61 0 96 40 123 83c31 49 54 101 105 101c24 0 43 -17 43 -43c0 -21 -14 -40 -39 -40s-35 19 -35 36c0 6 2 14 4 17c-21 0 -44 -45 -68 -79c-27 -38 -57 -76 -92 -76v-3c53 0 88 -32 83 -103
c-1 -17 -7 -45 -8 -65c-1 -36 8 -56 28 -56c24 0 57 46 92 110l9 -6c-35 -68 -75 -130 -121 -130c-33 0 -56 28 -55 79c1 40 12 75 12 107c0 43 -12 56 -60 56c-6 0 -17 -1 -25 -3l-28 -109l-35 -124h-47z" />
    <glyph glyph-name="l" unicode="l" horiz-adv-x="227" 
d="M11 126l139 490c4 14 8 29 8 38c0 17 -14 21 -44 21h-29l3 9l134 14l-167 -589c-6 -20 -13 -52 -13 -63c0 -18 5 -29 21 -29c20 0 54 38 94 111l9 -6c-38 -75 -77 -128 -117 -128c-30 0 -52 21 -52 57c0 25 7 50 14 75z" />
    <glyph glyph-name="less" unicode="&#x3c;" horiz-adv-x="463" 
d="M60 321l362 -172v-14l-381 180v10l381 180v-13z" />
    <glyph glyph-name="lslash" unicode="&#x142;" horiz-adv-x="227" 
d="M60 299l90 315c4 14 8 29 8 38c0 17 -14 21 -44 21h-29l3 11l134 14l-110 -384l85 40l-4 -15l-85 -40l-49 -168c-9 -30 -17 -60 -17 -73c0 -19 7 -30 23 -30c20 0 55 35 92 100l9 -6c-39 -78 -79 -128 -116 -128c-33 0 -52 21 -52 58c0 22 5 46 13 74l45 158l-68 -32
l4 15z" />
    <glyph glyph-name="m" unicode="m" horiz-adv-x="628" 
d="M419 124l54 139c9 23 22 65 23 90c1 30 -7 50 -37 50c-51 0 -142 -110 -182 -243l-48 -160h-45l80 262c7 23 19 70 20 92c1 29 -7 48 -34 48c-62 0 -152 -133 -185 -249l-43 -153h-47l106 344c4 14 5 23 5 31c0 18 -11 26 -45 26h-33l3 9l121 11c0 -40 -12 -78 -29 -128
l-17 -50l3 -1c46 104 114 179 179 179c42 0 57 -26 56 -69c-1 -32 -24 -95 -29 -105l3 -1c52 102 109 176 178 176c42 0 66 -26 66 -69c0 -34 -12 -67 -22 -91l-62 -158c-9 -22 -17 -50 -17 -64c0 -19 7 -25 21 -25c25 0 61 31 104 113l9 -6c-38 -75 -81 -128 -125 -128
c-31 0 -50 21 -50 52c0 25 8 50 19 78z" />
    <glyph glyph-name="macron" unicode="&#xaf;" 
d="M188 485l13 41h218l-13 -41h-218z" />
    <glyph glyph-name="minus" unicode="&#x2212;" horiz-adv-x="463" 
d="M49 315v13h364v-13h-364z" />
    <glyph glyph-name="multiply" unicode="&#xd7;" horiz-adv-x="463" 
d="M45 143l178 179l-181 180l9 9l181 -181l181 181l8 -9l-180 -180l178 -179l-9 -9l-178 179l-179 -179z" />
    <glyph glyph-name="n" unicode="n" horiz-adv-x="428" 
d="M200 46c0 25 8 51 19 78l54 139c13 34 22 69 23 90c1 30 -8 50 -37 50c-71 0 -159 -127 -194 -251l-43 -152h-47l105 341c4 13 6 25 6 33c0 18 -9 27 -46 27h-32l3 9l121 11c0 -40 -12 -78 -29 -128l-17 -50l3 -1c45 105 118 180 187 180c42 0 66 -26 66 -69
c0 -34 -12 -67 -22 -91l-62 -158c-9 -22 -17 -50 -17 -66c0 -13 5 -23 21 -23c26 0 61 31 104 113l9 -6c-38 -75 -81 -128 -125 -128c-31 0 -50 21 -50 52z" />
    <glyph glyph-name="nbspace" unicode="&#xa0;" horiz-adv-x="186" 
 />
    <glyph glyph-name="nine" unicode="9" horiz-adv-x="409" 
d="M390 485c0 -253 -161 -498 -302 -498c-67 0 -98 34 -98 84c0 35 28 57 53 57s41 -18 41 -40c0 -21 -15 -45 -46 -45c-24 0 -31 10 -31 -2c0 -14 23 -46 80 -46c105 0 199 183 230 351c-38 -65 -90 -99 -146 -99c-81 0 -125 60 -125 148c0 129 107 270 213 270
c85 0 131 -80 131 -180zM101 348c0 -54 28 -89 70 -89c88 0 176 99 176 283c0 65 -28 114 -86 114c-110 0 -160 -164 -160 -308z" />
    <glyph glyph-name="ntilde" unicode="&#xf1;" horiz-adv-x="428" 
d="M200 46c0 25 8 51 19 78l54 139c13 34 22 69 23 90c1 30 -8 50 -37 50c-71 0 -159 -127 -194 -251l-43 -152h-47l105 341c4 13 6 25 6 33c0 18 -9 27 -46 27h-32l3 9l121 11c0 -40 -12 -78 -29 -128l-17 -50l3 -1c45 105 118 180 187 180c42 0 66 -26 66 -69
c0 -34 -12 -67 -22 -91l-62 -158c-9 -22 -17 -50 -17 -66c0 -13 5 -23 21 -23c26 0 61 31 104 113l9 -6c-38 -75 -81 -128 -125 -128c-31 0 -50 21 -50 52zM223 555c38 -1 59 -23 90 -25c22 -1 34 7 56 41l7 -2c-30 -59 -57 -85 -104 -83c-39 2 -57 24 -88 26
c-22 1 -37 -9 -57 -40l-7 2c30 60 54 82 103 81z" />
    <glyph glyph-name="numbersign" unicode="#" horiz-adv-x="457" 
d="M371 463h109l-15 -52h-110l-53 -175h114l-16 -52h-114l-59 -191h-10l58 191h-171l-59 -191h-12l58 191h-114l17 52h113l54 175h-118l15 52h119l58 189h12l-58 -189h172l58 189h10zM345 411h-172l-53 -175h171z" />
    <glyph glyph-name="o" unicode="o" horiz-adv-x="390" 
d="M207 428c69 0 122 -57 122 -155c0 -138 -107 -281 -216 -281c-78 0 -122 58 -122 162c0 139 103 274 216 274zM113 2c99 0 169 169 169 313c0 59 -20 103 -71 103c-115 0 -172 -155 -172 -301c0 -83 29 -115 74 -115z" />
    <glyph glyph-name="oacute" unicode="&#xf3;" horiz-adv-x="390" 
d="M207 428c69 0 122 -57 122 -155c0 -138 -107 -281 -216 -281c-78 0 -122 58 -122 162c0 139 103 274 216 274zM113 2c99 0 169 169 169 313c0 59 -20 103 -71 103c-115 0 -172 -155 -172 -301c0 -83 29 -115 74 -115zM202 466l-4 4l72 94c16 21 28 36 45 36
c19 0 30 -14 30 -28s-11 -28 -36 -43z" />
    <glyph glyph-name="ocircumflex" unicode="&#xf4;" horiz-adv-x="390" 
d="M207 428c69 0 122 -57 122 -155c0 -138 -107 -281 -216 -281c-78 0 -122 58 -122 162c0 139 103 274 216 274zM113 2c99 0 169 169 169 313c0 59 -20 103 -71 103c-115 0 -172 -155 -172 -301c0 -83 29 -115 74 -115zM116 460l113 146h36l42 -143l-5 -3l-70 91l-111 -93z
" />
    <glyph glyph-name="odieresis" unicode="&#xf6;" horiz-adv-x="390" 
d="M207 428c69 0 122 -57 122 -155c0 -138 -107 -281 -216 -281c-78 0 -122 58 -122 162c0 139 103 274 216 274zM113 2c99 0 169 169 169 313c0 59 -20 103 -71 103c-115 0 -172 -155 -172 -301c0 -83 29 -115 74 -115zM253 530c0 23 18 40 40 40s41 -17 41 -40
s-19 -40 -41 -40s-40 17 -40 40zM111 530c0 23 18 40 40 40s41 -17 41 -40s-19 -40 -41 -40s-40 17 -40 40z" />
    <glyph glyph-name="oe" unicode="&#x153;" horiz-adv-x="623" 
d="M267 91c-42 -57 -97 -97 -154 -97c-78 0 -122 58 -122 162c0 139 103 272 216 272c55 0 99 -36 116 -99c43 59 104 99 167 99c58 0 93 -31 93 -86c0 -72 -83 -132 -271 -164c-2 -10 -3 -37 -3 -48c0 -97 60 -116 87 -116c65 0 112 37 154 93l8 -6
c-51 -69 -94 -107 -168 -107c-55 0 -106 32 -123 97zM313 190c123 23 221 53 221 155c0 65 -30 74 -54 74c-59 0 -149 -88 -167 -229zM113 3c92 0 169 168 169 312c0 59 -24 104 -71 104c-109 0 -172 -154 -172 -300c0 -83 33 -116 74 -116z" />
    <glyph glyph-name="ogonek" unicode="&#x2db;" 
d="M229 -7h9c-72 -48 -109 -99 -109 -144c0 -32 20 -45 52 -45c23 0 44 9 67 24l4 -6c-44 -35 -71 -46 -112 -46c-37 0 -65 18 -65 54c0 67 85 125 154 163z" />
    <glyph glyph-name="ograve" unicode="&#xf2;" horiz-adv-x="390" 
d="M207 428c69 0 122 -57 122 -155c0 -138 -107 -281 -216 -281c-78 0 -122 58 -122 162c0 139 103 274 216 274zM113 2c99 0 169 169 169 313c0 59 -20 103 -71 103c-115 0 -172 -155 -172 -301c0 -83 29 -115 74 -115zM287 466l-107 63c-25 15 -36 29 -36 43s11 28 30 28
c17 0 29 -15 45 -36l72 -94z" />
    <glyph glyph-name="one" unicode="1" horiz-adv-x="289" 
d="M-46 13h31c49 0 67 20 76 56l111 442c10 41 1 58 -45 58h-37l3 13c100 7 122 35 158 85h9l-149 -597c-6 -29 -2 -57 46 -57h29l-3 -13h-233z" />
    <glyph glyph-name="onehalf" unicode="&#xbd;" horiz-adv-x="710" 
d="M69 307h19c27 0 40 7 47 33l60 242c7 26 -4 33 -31 33h-19l3 9c61 2 90 22 103 39h9l-80 -323c-6 -26 3 -33 31 -33h18l-3 -10h-160zM588 653h19l-524 -659h-17zM349 8c37 58 91 109 161 166c45 37 84 67 86 112c2 35 -15 64 -59 64c-39 0 -87 -19 -91 -47
c-1 -6 2 -10 8 -9c24 3 33 -13 32 -28c-1 -19 -17 -30 -37 -30c-21 0 -33 17 -31 38c4 55 74 90 129 90c54 0 104 -26 97 -86c-6 -52 -49 -81 -110 -119c-64 -40 -112 -68 -147 -117h128c44 0 56 13 76 62h9l-31 -104h-222z" />
    <glyph glyph-name="onequarter" unicode="&#xbc;" horiz-adv-x="680" 
d="M69 307h19c27 0 40 7 47 33l60 242c7 26 -4 33 -31 33h-19l3 9c61 2 90 22 103 39h9l-80 -323c-6 -26 3 -33 31 -33h18l-3 -10h-160zM588 653h19l-524 -659h-17zM511 103h51l-4 -12h-51l-12 -50c-6 -25 2 -31 24 -31h14l-2 -10h-141l2 10h19c22 0 33 6 39 31l12 50h-151
l2 8l242 267h21zM466 103l51 207l-186 -207h135z" />
    <glyph glyph-name="onesuperior" unicode="&#xb9;" horiz-adv-x="265" 
d="M42 305h19c27 0 40 6 47 33l59 242c7 27 -4 33 -31 33h-19l3 9c62 2 90 22 103 39h9l-79 -323c-7 -27 3 -33 31 -33h18l-3 -10h-160z" />
    <glyph glyph-name="ordfeminine" unicode="&#xaa;" horiz-adv-x="362" 
d="M245 415h-2c-36 -61 -64 -85 -106 -85c-43 0 -75 37 -75 109c0 119 80 216 147 216c33 0 67 -18 74 -81h2c17 18 45 57 56 83h7l-67 -230c-5 -18 -12 -40 -12 -50s2 -20 14 -20c15 0 40 20 70 77l8 -5c-29 -56 -62 -96 -95 -96c-27 0 -30 23 -30 37c0 12 4 32 9 45z
M30 250l4 16h266l-4 -16h-266zM217 642c-69 0 -119 -116 -119 -212c0 -53 15 -87 48 -87c49 0 126 96 126 214c0 41 -15 85 -55 85z" />
    <glyph glyph-name="ordmasculine" unicode="&#xba;" horiz-adv-x="322" 
d="M229 655c52 0 92 -42 92 -116c0 -103 -80 -214 -162 -214c-59 0 -92 43 -92 121c0 104 78 209 162 209zM34 266h226l-3 -16h-227zM159 334c69 0 127 129 127 237c0 44 -18 75 -54 75c-81 0 -129 -118 -129 -228c0 -62 25 -84 56 -84z" />
    <glyph glyph-name="oslash" unicode="&#xf8;" horiz-adv-x="390" 
d="M295 385c22 -26 34 -64 34 -112c0 -138 -107 -280 -216 -280c-37 0 -66 13 -87 37c0 1 -62 -83 -62 -83h-16l70 94c-18 27 -27 66 -27 114c0 139 103 273 216 273c31 0 58 -11 79 -32l66 87h16zM43 74l228 301c-11 27 -31 44 -60 44c-109 0 -172 -155 -172 -301
c0 -17 1 -31 4 -44zM276 360c1 0 -229 -302 -229 -302c11 -39 37 -56 66 -56c92 0 169 169 169 313c0 16 -2 32 -6 45z" />
    <glyph glyph-name="otilde" unicode="&#xf5;" horiz-adv-x="390" 
d="M207 428c69 0 122 -57 122 -155c0 -138 -107 -281 -216 -281c-78 0 -122 58 -122 162c0 139 103 274 216 274zM113 2c99 0 169 169 169 313c0 59 -20 103 -71 103c-115 0 -172 -155 -172 -301c0 -83 29 -115 74 -115zM201 555c38 -1 59 -23 90 -25c22 -1 34 7 56 41l7 -2
c-30 -59 -57 -85 -104 -83c-39 2 -57 24 -88 26c-22 1 -37 -9 -57 -40l-7 2c30 60 54 82 103 81z" />
    <glyph glyph-name="p" unicode="p" horiz-adv-x="423" 
d="M-131 -191h11c41 0 47 2 68 73l133 461c15 51 2 58 -43 58h-28l3 9l119 11c1 -20 -4 -61 -20 -105h3c47 73 97 108 150 108c54 0 99 -45 99 -125c0 -173 -113 -305 -208 -305c-63 0 -89 42 -100 109h-3l-31 -112l-30 -111c-18 -66 -14 -71 35 -71h27l-3 -13h-185zM150 6
c87 0 165 146 165 317c0 62 -23 84 -62 84c-85 0 -182 -141 -182 -280c0 -74 28 -121 79 -121z" />
    <glyph glyph-name="paragraph" unicode="&#xb6;" horiz-adv-x="490" 
d="M205 317c-75 15 -128 59 -128 143c0 117 92 187 216 187h215l-3 -12h-90l-155 -640h-12l153 640h-107l-155 -640h-12z" />
    <glyph glyph-name="parenleft" unicode="(" horiz-adv-x="276" 
d="M334 697l-4 -13c-164 -132 -279 -347 -279 -579c0 -90 24 -165 76 -238l-3 -10c-74 72 -113 166 -113 275c0 220 120 433 323 565z" />
    <glyph glyph-name="parenright" unicode=")" horiz-adv-x="276" 
d="M-96 -143l4 13c164 132 279 347 279 579c0 90 -24 165 -76 238l3 10c74 -72 113 -166 113 -275c0 -220 -120 -433 -323 -565z" />
    <glyph glyph-name="percent" unicode="%" horiz-adv-x="534" 
d="M146 353c-39 0 -89 31 -89 99c0 22 2 41 8 65c18 71 83 141 140 141c30 0 87 -25 87 -99c0 -16 -1 -35 -4 -50c-15 -78 -86 -156 -142 -156zM504 653h25l-501 -659h-23zM330 -7c-39 0 -89 31 -89 99c0 22 2 41 8 65c18 71 83 141 140 141c30 0 87 -25 87 -99
c0 -16 -1 -35 -4 -50c-15 -78 -86 -156 -142 -156zM146 361c42 0 79 67 94 134c8 36 12 69 12 92c0 45 -19 63 -50 63c-40 0 -75 -63 -90 -127c-9 -39 -15 -69 -15 -104c0 -41 22 -58 49 -58zM330 1c42 0 79 67 94 134c8 36 12 69 12 92c0 45 -19 63 -50 63
c-40 0 -75 -63 -90 -127c-9 -39 -15 -69 -15 -104c0 -41 22 -58 49 -58z" />
    <glyph glyph-name="period" unicode="." horiz-adv-x="179" 
d="M70 32c0 -26 -18 -44 -44 -44c-25 0 -43 18 -43 44c0 25 18 43 43 43c26 0 44 -18 44 -43z" />
    <glyph glyph-name="periodcentered" unicode="&#xb7;" horiz-adv-x="189" 
d="M112 240c0 -26 -18 -44 -44 -44c-25 0 -43 18 -43 44c0 25 18 43 43 43c26 0 44 -18 44 -43z" />
    <glyph glyph-name="perthousand" unicode="&#x2030;" horiz-adv-x="808" 
d="M146 353c-39 0 -89 31 -89 99c0 22 2 41 8 65c18 71 83 141 140 141c30 0 87 -25 87 -99c0 -16 -1 -35 -4 -50c-15 -78 -86 -156 -142 -156zM504 653h25l-501 -659h-23zM604 -7c-39 0 -89 31 -89 99c0 22 2 41 8 65c18 71 83 141 140 141c30 0 87 -25 87 -99
c0 -16 -1 -35 -4 -50c-15 -78 -86 -156 -142 -156zM330 -7c-39 0 -89 31 -89 99c0 22 2 41 8 65c18 71 83 141 140 141c30 0 87 -25 87 -99c0 -16 -1 -35 -4 -50c-15 -78 -86 -156 -142 -156zM146 361c42 0 79 67 94 134c8 36 12 69 12 92c0 45 -19 63 -50 63
c-40 0 -75 -63 -90 -127c-9 -39 -15 -69 -15 -104c0 -41 22 -58 49 -58zM604 1c42 0 79 67 94 134c8 36 12 69 12 92c0 45 -19 63 -50 63c-40 0 -75 -63 -90 -127c-9 -39 -15 -69 -15 -104c0 -41 22 -58 49 -58zM330 1c42 0 79 67 94 134c8 36 12 69 12 92
c0 45 -19 63 -50 63c-40 0 -75 -63 -90 -127c-9 -39 -15 -69 -15 -104c0 -41 22 -58 49 -58z" />
    <glyph glyph-name="plus" unicode="+" horiz-adv-x="463" 
d="M227 108v207h-186v13h186v207h12v-207h185v-13h-185v-207h-12z" />
    <glyph glyph-name="q" unicode="q" horiz-adv-x="420" 
d="M290 315h3c18 16 60 77 75 111h9l-164 -560c-16 -54 -11 -57 38 -57h18l-3 -13h-175l2 13h12c45 0 50 11 64 59l35 123c15 51 34 107 34 107h-3c-37 -64 -80 -104 -138 -104c-50 0 -101 39 -101 149c0 139 94 281 197 281c62 0 92 -45 97 -109zM202 406
c-92 0 -159 -150 -159 -279c0 -77 21 -115 70 -115c65 0 164 126 164 287c0 61 -21 107 -75 107z" />
    <glyph glyph-name="question" unicode="?" horiz-adv-x="381" 
d="M131 191l6 24c22 87 56 147 122 206c49 44 75 95 75 156c0 55 -21 106 -88 106c-63 0 -116 -44 -124 -75c-4 -16 6 -3 26 -8c15 -4 27 -20 27 -39c0 -24 -18 -43 -43 -43c-23 0 -42 20 -42 47c1 63 76 128 157 128c97 0 150 -41 150 -120c0 -74 -71 -126 -121 -170
c-52 -44 -98 -92 -127 -192l-6 -20h-12zM159 32c0 -26 -18 -44 -44 -44c-25 0 -43 18 -43 44c0 25 18 43 43 43c26 0 44 -18 44 -43z" />
    <glyph glyph-name="questiondown" unicode="&#xbf;" horiz-adv-x="381" 
d="M254 469c-22 -87 -56 -147 -122 -206c-49 -44 -75 -95 -75 -156c0 -55 21 -106 88 -106c63 0 116 44 124 75c4 16 -6 1 -26 8c-15 6 -27 22 -27 39c0 24 18 43 43 43c23 0 42 -20 42 -47c-1 -60 -74 -128 -155 -128c-97 0 -152 41 -152 120c0 74 71 126 121 170
c52 44 98 92 127 192l6 20h12zM232 652c0 26 18 44 44 44c25 0 43 -18 43 -44c0 -25 -18 -43 -43 -43c-26 0 -44 18 -44 43z" />
    <glyph glyph-name="quotedbl" unicode="&#x22;" horiz-adv-x="385" 
d="M281 410l20 195c3 30 7 79 52 79c44 0 26 -50 14 -79l-79 -195h-7zM125 410l20 195c3 30 7 79 52 79c44 0 26 -50 14 -79l-79 -195h-7z" />
    <glyph glyph-name="quotedblbase" unicode="&#x201e;" horiz-adv-x="325" 
d="M178 -11c-26 0 -42 21 -42 43c0 25 16 43 43 43s46 -20 46 -55c0 -58 -38 -112 -131 -171l-7 10c37 21 119 86 117 130c0 9 -9 0 -26 0zM32 -11c-26 0 -42 21 -42 43c0 25 16 43 43 43s46 -20 46 -55c0 -58 -38 -112 -131 -171l-7 10c37 21 119 86 117 130
c0 9 -9 0 -26 0z" />
    <glyph glyph-name="quotedblleft" unicode="&#x201c;" horiz-adv-x="373" 
d="M299 556c26 0 42 -21 42 -43c0 -25 -16 -43 -43 -43s-46 20 -46 55c0 58 38 112 131 171l7 -10c-37 -21 -119 -86 -117 -130c0 -9 9 0 26 0zM155 556c26 0 42 -21 42 -43c0 -25 -16 -43 -43 -43s-46 20 -46 55c0 58 38 112 131 171l7 -10c-37 -21 -119 -86 -117 -130
c0 -9 9 0 26 0z" />
    <glyph glyph-name="quotedblright" unicode="&#x201d;" horiz-adv-x="373" 
d="M339 607c-26 0 -42 21 -42 43c0 25 16 43 43 43s46 -20 46 -55c0 -58 -38 -112 -131 -171l-7 10c37 21 119 86 117 130c0 9 -9 0 -26 0zM193 607c-26 0 -42 21 -42 43c0 25 16 43 43 43s46 -20 46 -55c0 -58 -38 -112 -131 -171l-7 10c37 21 119 86 117 130
c0 9 -9 0 -26 0z" />
    <glyph glyph-name="quoteleft" unicode="&#x2018;" horiz-adv-x="228" 
d="M155 556c26 0 42 -21 42 -43c0 -25 -16 -43 -43 -43s-46 20 -46 55c0 58 38 112 131 171l7 -10c-37 -21 -119 -86 -117 -130c0 -9 9 0 26 0z" />
    <glyph glyph-name="quoteright" unicode="&#x2019;" horiz-adv-x="228" 
d="M193 607c-26 0 -42 21 -42 43c0 25 16 43 43 43s46 -20 46 -55c0 -58 -38 -112 -131 -171l-7 10c37 21 119 86 117 130c0 9 -9 0 -26 0z" />
    <glyph glyph-name="quotesinglbase" unicode="&#x201a;" horiz-adv-x="179" 
d="M32 -11c-26 0 -42 21 -42 43c0 25 16 43 43 43s46 -20 46 -55c0 -58 -38 -112 -131 -171l-7 10c37 21 119 86 117 130c0 9 -9 0 -26 0z" />
    <glyph glyph-name="quotesingle" unicode="'" horiz-adv-x="229" 
d="M125 410l20 195c3 30 7 79 52 79c44 0 26 -50 14 -79l-79 -195h-7z" />
    <glyph glyph-name="r" unicode="r" horiz-adv-x="298" 
d="M-25 0l106 343c15 50 -2 58 -41 58h-32l3 9l121 11c0 -40 -11 -72 -29 -127l-17 -51l3 -1c57 108 108 181 158 181c30 0 43 -20 43 -41c0 -27 -17 -42 -36 -42c-14 0 -31 7 -31 28c0 7 2 10 2 15c0 4 -2 7 -8 7c-32 0 -127 -147 -155 -248l-40 -142h-47z" />
    <glyph glyph-name="radical" unicode="&#x221a;" horiz-adv-x="523" 
d="M165 -7l-60 209c-15 51 -34 68 -88 71l3 12h113l60 -213c156 429 291 626 353 626c12 0 22 -7 21 -22c-1 -21 -17 -27 -43 -49c-135 -119 -255 -371 -350 -634h-9z" />
    <glyph glyph-name="registered" unicode="&#xae;" horiz-adv-x="467" 
d="M93 512c0 102 83 180 188 180c106 0 189 -78 189 -180s-83 -181 -189 -181c-105 0 -188 79 -188 181zM108 512c0 -96 75 -167 173 -167c99 0 174 71 174 167c0 95 -75 167 -174 167c-98 0 -173 -72 -173 -167zM194 621h87c52 0 86 -16 86 -53c0 -29 -28 -52 -67 -54
c22 -5 35 -34 41 -50c10 -32 19 -36 29 -36c6 0 15 8 14 41h6c4 -45 -17 -58 -34 -58c-22 0 -37 13 -45 58c-3 18 -13 41 -29 41h-27v-75c0 -12 4 -14 17 -14h13v-8h-91v8h12c13 0 19 2 19 14v163c0 11 -6 14 -19 14h-12v9zM255 518h28c33 0 51 15 51 49c0 28 -14 46 -43 46
h-19c-15 0 -17 -3 -17 -15v-80z" />
    <glyph glyph-name="registered.alt" horiz-adv-x="830" 
d="M777 342c0 -201 -153 -358 -362 -358c-208 0 -361 158 -361 358c0 201 153 358 361 358c210 0 362 -155 362 -358zM760 342c0 190 -146 345 -345 345s-344 -155 -344 -345s145 -345 344 -345s345 155 345 345zM402 165v-14h-168v14h24c29 0 42 9 42 39v295
c0 29 -9 36 -39 36h-18v13h178c82 0 138 -30 138 -101c0 -56 -53 -90 -110 -97v-3c34 -7 56 -45 69 -94c19 -74 25 -82 40 -82c10 0 25 18 23 68h13c6 -62 -10 -92 -48 -92c-31 0 -61 15 -73 94c-14 94 -23 104 -86 104h-45v-143c0 -29 11 -37 38 -37h22zM512 448
c0 48 -28 88 -113 88h-16c-30 0 -41 -4 -41 -36v-143h74c77 0 96 45 96 91z" />
    <glyph glyph-name="ring" unicode="&#x2da;" 
d="M325 649c48 0 84 -39 84 -85c0 -47 -37 -85 -84 -85s-84 38 -84 85s37 85 84 85zM325 634c-36 0 -62 -30 -62 -70c0 -38 27 -70 62 -70c38 0 62 32 62 70c0 40 -25 70 -62 70z" />
    <glyph glyph-name="s" unicode="s" horiz-adv-x="298" 
d="M-47 82c2 25 20 38 38 37c16 -1 33 -12 31 -35c-2 -30 -31 -28 -31 -39c0 -12 19 -38 78 -42c60 -4 103 24 106 81c2 50 -24 74 -84 121c-38 31 -71 66 -68 118c3 60 50 111 134 106c65 -4 101 -39 100 -70c-1 -22 -15 -37 -35 -36c-21 1 -34 13 -33 32c1 20 24 29 24 40
c1 9 -21 22 -59 24c-55 3 -93 -28 -95 -73c-3 -50 38 -73 70 -101c48 -41 87 -71 84 -129c-4 -76 -60 -128 -148 -122c-75 5 -114 49 -112 88z" />
    <glyph glyph-name="scaron" unicode="&#x161;" horiz-adv-x="298" 
d="M-47 82c2 25 20 38 38 37c16 -1 33 -12 31 -35c-2 -30 -31 -28 -31 -39c0 -12 19 -38 78 -42c60 -4 103 24 106 81c2 50 -24 74 -84 121c-38 31 -71 66 -68 118c3 60 50 111 134 106c65 -4 101 -39 100 -70c-1 -22 -15 -37 -35 -36c-21 1 -34 13 -33 32c1 20 24 29 24 40
c1 9 -21 22 -59 24c-55 3 -93 -28 -95 -73c-3 -50 38 -73 70 -101c48 -41 87 -71 84 -129c-4 -76 -60 -128 -148 -122c-75 5 -114 49 -112 88zM289 610l-113 -146h-36l-42 143l5 3l70 -91l111 93z" />
    <glyph glyph-name="section" unicode="&#xa7;" horiz-adv-x="504" 
d="M165 212c-61 26 -90 61 -90 105c0 68 58 115 127 133c-30 18 -48 46 -48 81c0 72 73 130 159 130c101 0 119 -58 119 -82s-20 -45 -44 -45c-23 0 -37 13 -37 36c0 10 6 25 22 32c17 7 26 0 26 11c0 9 -21 39 -88 39c-62 0 -118 -44 -118 -104c0 -45 32 -62 117 -100
c53 -24 119 -52 119 -118c0 -69 -65 -117 -129 -135c31 -18 50 -42 50 -78c0 -73 -75 -131 -161 -131c-108 0 -128 58 -128 82c0 23 19 45 44 45c23 0 38 -14 38 -36c0 -15 -9 -28 -24 -32c-17 -5 -24 -1 -24 -11c0 -9 29 -39 96 -39c68 0 120 50 120 102
c0 53 -44 72 -146 115zM186 246c28 -14 87 -37 102 -44c55 3 102 66 102 109c0 48 -44 71 -76 88c-28 15 -67 30 -100 44c-60 -8 -100 -67 -100 -112c0 -50 47 -72 72 -85z" />
    <glyph glyph-name="semicolon" unicode=";" horiz-adv-x="199" 
d="M145 346c0 -26 -18 -44 -44 -44c-25 0 -43 18 -43 44c0 25 18 43 43 43c26 0 44 -18 44 -43zM-60 -160c87 58 121 117 121 146c0 19 -16 3 -36 3c-25 0 -37 16 -37 41c0 26 19 45 45 45c25 0 44 -27 44 -65c0 -67 -45 -122 -132 -178z" />
    <glyph glyph-name="seven" unicode="7" horiz-adv-x="420" 
d="M88 74c24 95 118 285 348 520h-201c-100 0 -125 -36 -173 -157h-10l71 210h355l-7 -29c-161 -178 -238 -271 -294 -448c-16 -51 -23 -88 -26 -118c-4 -44 -13 -66 -42 -66s-34 38 -21 88z" />
    <glyph glyph-name="six" unicode="6" horiz-adv-x="409" 
d="M24 167c0 253 161 498 302 498c67 0 98 -33 98 -83c0 -35 -28 -57 -53 -57s-41 18 -41 40c0 21 15 45 46 45c24 0 31 -10 31 2c0 13 -23 45 -80 45c-105 0 -199 -183 -230 -351c38 65 90 99 146 99c81 0 125 -60 125 -148c0 -129 -107 -270 -213 -270
c-85 0 -131 80 -131 180zM313 304c0 54 -28 89 -70 89c-88 0 -176 -99 -176 -283c0 -65 28 -114 86 -114c110 0 160 172 160 308z" />
    <glyph glyph-name="slash" unicode="/" horiz-adv-x="346" 
d="M389 689h15l-499 -774h-13z" />
    <glyph glyph-name="space" unicode=" " horiz-adv-x="186" 
 />
    <glyph glyph-name="sterling" unicode="&#xa3;" horiz-adv-x="486" 
d="M172 322h-124l3 10h119c-13 35 -23 73 -23 114c0 122 95 215 223 215c83 0 124 -52 120 -114c-2 -36 -26 -62 -55 -62c-31 0 -44 22 -44 42s14 46 53 46c18 0 29 -12 29 5c0 46 -55 73 -101 73c-87 0 -166 -70 -166 -207c0 -35 5 -71 7 -112h180l-3 -10h-177
c1 -13 2 -26 2 -39c0 -75 -27 -133 -67 -193c22 -19 63 -50 105 -50c83 0 124 63 149 163h10c-28 -135 -79 -210 -174 -210c-56 0 -92 36 -113 65c-30 -40 -68 -67 -111 -67c-39 0 -68 19 -68 64c0 51 46 79 97 79c42 0 75 -20 99 -39c32 50 44 104 44 144
c0 31 -6 57 -14 83zM120 65c-18 32 -48 58 -84 58c-37 0 -79 -24 -79 -68c0 -40 29 -55 59 -55c41 0 75 28 104 65z" />
    <glyph glyph-name="t" unicode="t" horiz-adv-x="272" 
d="M-7 67c0 16 5 45 10 61l79 273h-70l3 8c83 13 121 54 167 190h9l-57 -185h124l-4 -13h-125l-85 -285c-4 -14 -10 -38 -10 -53c0 -29 12 -50 40 -50c39 0 70 28 119 115l9 -4c-47 -96 -90 -130 -140 -130c-33 0 -69 16 -69 73z" />
    <glyph glyph-name="thorn" unicode="&#xfe;" horiz-adv-x="423" 
d="M144 428c0 0 -17 -68 -34 -112h3c44 67 99 108 152 108c54 0 99 -45 99 -125c0 -173 -113 -305 -208 -305c-63 0 -91 39 -102 106h-2l-30 -109l-30 -111c-15 -56 -7 -71 37 -71h27l-3 -13h-194l3 13h12c45 0 57 13 74 73l204 732c4 14 8 29 8 38c0 17 -14 21 -44 21h-29
l3 11l132 14zM150 8c87 0 165 141 165 323c0 62 -28 76 -62 76c-74 0 -183 -143 -183 -280c0 -66 31 -119 80 -119z" />
    <glyph glyph-name="three" unicode="3" horiz-adv-x="384" 
d="M-22 99c0 50 30 81 59 81s44 -21 44 -44c0 -24 -18 -44 -47 -44c-24 0 -37 21 -39 -1c-3 -38 34 -94 120 -94c85 0 145 80 145 201c0 81 -40 130 -87 130c-20 0 -19 -4 -40 -4c-8 0 -12 4 -12 7c0 4 2 10 12 10c16 0 23 -4 41 -4c98 0 150 74 156 180
c4 76 -26 133 -93 133c-88 0 -129 -64 -129 -88c0 -16 13 -8 25 -9c19 -1 37 -14 37 -39c0 -27 -19 -47 -45 -47c-27 0 -46 23 -46 51c0 85 83 143 161 143c97 0 149 -56 144 -146c-6 -102 -75 -169 -187 -182v-2c86 -16 122 -66 122 -143c0 -123 -92 -201 -206 -201
c-90 0 -135 56 -135 112z" />
    <glyph glyph-name="threequarters" unicode="&#xbe;" horiz-adv-x="680" 
d="M80 373c3 24 21 39 40 39c17 0 27 -11 26 -28c-1 -21 -19 -27 -37 -24c-5 1 -12 2 -13 -4c-2 -28 22 -54 64 -54c45 0 83 26 92 89c8 55 -8 87 -55 87c-4 0 -18 -2 -22 -2c-6 0 -12 1 -10 7c2 5 4 7 14 7c3 0 17 -3 20 -3c60 0 95 58 96 121c0 25 -13 45 -46 45
c-34 0 -77 -18 -87 -46c-3 -8 1 -13 3 -11c4 3 9 6 15 6c18 -1 21 -15 21 -26c0 -12 -14 -25 -29 -25c-18 0 -32 14 -30 34c4 39 56 78 109 78c54 0 95 -24 95 -70c0 -39 -36 -94 -117 -109l-1 -2c57 -2 82 -37 78 -86c-5 -63 -85 -104 -147 -104c-45 0 -86 32 -79 81z
M627 653h19l-524 -659h-17zM533 103h51l-4 -12h-51l-12 -50c-6 -25 2 -31 24 -31h14l-2 -10h-141l2 10h19c22 0 33 6 39 31l12 50h-151l2 8l242 267h21zM488 103l51 207l-186 -207h135z" />
    <glyph glyph-name="threesuperior" unicode="&#xb3;" horiz-adv-x="318" 
d="M55 373c3 24 21 39 40 39c17 0 27 -11 26 -28c-1 -21 -19 -27 -37 -24c-5 1 -12 2 -13 -4c-2 -28 22 -54 64 -54c45 0 85 26 94 89c8 55 -10 87 -57 87c-4 0 -18 -2 -22 -2c-6 0 -12 1 -10 7c2 5 4 7 14 7c3 0 17 -3 20 -3c60 0 96 58 97 121c0 25 -14 45 -47 45
c-34 0 -77 -18 -87 -46c-3 -8 1 -13 3 -11c4 3 9 6 15 6c18 -1 21 -15 21 -26c0 -12 -14 -25 -29 -25c-18 0 -32 14 -30 34c4 39 56 78 109 78c54 0 94 -24 94 -70c0 -39 -36 -95 -116 -109l-1 -2c57 -2 82 -37 78 -86c-5 -63 -78 -104 -140 -104c-59 0 -92 37 -86 81z" />
    <glyph glyph-name="tilde" unicode="&#x2dc;" 
d="M287 555c38 -1 59 -23 90 -25c22 -1 34 7 56 41l7 -2c-30 -59 -57 -85 -104 -83c-39 2 -57 24 -88 26c-22 1 -37 -9 -57 -40l-7 2c30 60 54 82 103 81z" />
    <glyph glyph-name="trademark" unicode="&#x2122;" horiz-adv-x="863" 
d="M195 381h25c22 0 31 4 31 22v273c-85 0 -111 -30 -117 -114h-6l6 122h271l6 -122h-7c-7 83 -25 114 -118 114v-273c0 -18 11 -22 32 -22h26v-10h-149v10zM821 684v-10h-19c-19 0 -29 -4 -29 -23v-248c0 -19 10 -22 29 -22h19v-10h-139v10h24c22 0 31 4 31 22v243
l-106 -279h-5l-116 279v-217c0 -43 10 -48 48 -48h8v-10h-115v10h6c33 0 43 5 43 48v222c0 19 -9 23 -29 23h-16v10h82l105 -260l100 260h79z" />
    <glyph glyph-name="two" unicode="2" horiz-adv-x="383" 
d="M-57 9c63 121 109 185 245 294c119 94 149 152 148 238c-2 92 -55 111 -80 111c-106 0 -152 -79 -152 -132c0 -27 4 -3 35 -3c20 0 39 -14 39 -39c0 -28 -19 -46 -47 -46c-23 0 -48 22 -48 58c0 105 83 171 164 171c98 0 150 -59 150 -135c-2 -90 -43 -137 -192 -239
c-112 -77 -176 -144 -224 -234h194c72 0 104 45 131 127h9l-53 -180h-321z" />
    <glyph glyph-name="twosuperior" unicode="&#xb2;" horiz-adv-x="322" 
d="M42 308c37 58 91 109 161 166c45 37 84 67 86 112c2 35 -15 64 -59 64c-39 0 -87 -19 -91 -47c-1 -6 2 -10 8 -9c24 3 33 -13 32 -28c-1 -19 -17 -30 -37 -30c-21 0 -33 17 -31 38c4 55 74 90 129 90c54 0 104 -26 97 -86c-6 -52 -49 -81 -110 -119
c-64 -40 -112 -68 -147 -117h128c44 0 56 13 76 62h9l-31 -104h-222z" />
    <glyph glyph-name="u" unicode="u" horiz-adv-x="435" 
d="M11 155l64 190c5 15 7 25 7 33c0 18 -14 24 -44 24h-34l3 9l126 10c1 -31 -4 -63 -26 -126l-49 -141c-8 -23 -21 -71 -21 -94c0 -26 7 -42 36 -42c64 0 160 124 198 250l43 143h47l-92 -300c-6 -18 -13 -48 -13 -62c0 -18 4 -30 22 -30c20 0 55 37 95 109l9 -6
c-38 -75 -81 -128 -123 -128c-29 0 -43 17 -43 48c0 24 9 54 16 76l15 49l-3 1c-53 -96 -122 -174 -183 -174c-44 0 -66 26 -66 72c0 32 7 63 16 89z" />
    <glyph glyph-name="uacute" unicode="&#xfa;" horiz-adv-x="435" 
d="M11 155l64 190c5 15 7 25 7 33c0 18 -14 24 -44 24h-34l3 9l126 10c1 -31 -4 -63 -26 -126l-49 -141c-8 -23 -21 -71 -21 -94c0 -26 7 -42 36 -42c64 0 160 124 198 250l43 143h47l-92 -300c-6 -18 -13 -48 -13 -62c0 -18 4 -30 22 -30c20 0 55 37 95 109l9 -6
c-38 -75 -81 -128 -123 -128c-29 0 -43 17 -43 48c0 24 9 54 16 76l15 49l-3 1c-53 -96 -122 -174 -183 -174c-44 0 -66 26 -66 72c0 32 7 63 16 89zM198 466l-4 4l72 94c16 21 28 36 45 36c19 0 30 -14 30 -28s-11 -28 -36 -43z" />
    <glyph glyph-name="ucircumflex" unicode="&#xfb;" horiz-adv-x="435" 
d="M11 155l64 190c5 15 7 25 7 33c0 18 -14 24 -44 24h-34l3 9l126 10c1 -31 -4 -63 -26 -126l-49 -141c-8 -23 -21 -71 -21 -94c0 -26 7 -42 36 -42c64 0 160 124 198 250l43 143h47l-92 -300c-6 -18 -13 -48 -13 -62c0 -18 4 -30 22 -30c20 0 55 37 95 109l9 -6
c-38 -75 -81 -128 -123 -128c-29 0 -43 17 -43 48c0 24 9 54 16 76l15 49l-3 1c-53 -96 -122 -174 -183 -174c-44 0 -66 26 -66 72c0 32 7 63 16 89zM141 460l113 146h36l42 -143l-5 -3l-70 91l-111 -93z" />
    <glyph glyph-name="udieresis" unicode="&#xfc;" horiz-adv-x="435" 
d="M11 155l64 190c5 15 7 25 7 33c0 18 -14 24 -44 24h-34l3 9l126 10c1 -31 -4 -63 -26 -126l-49 -141c-8 -23 -21 -71 -21 -94c0 -26 7 -42 36 -42c64 0 160 124 198 250l43 143h47l-92 -300c-6 -18 -13 -48 -13 -62c0 -18 4 -30 22 -30c20 0 55 37 95 109l9 -6
c-38 -75 -81 -128 -123 -128c-29 0 -43 17 -43 48c0 24 9 54 16 76l15 49l-3 1c-53 -96 -122 -174 -183 -174c-44 0 -66 26 -66 72c0 32 7 63 16 89zM270 530c0 23 18 40 40 40s41 -17 41 -40s-19 -40 -41 -40s-40 17 -40 40zM128 530c0 23 18 40 40 40s41 -17 41 -40
s-19 -40 -41 -40s-40 17 -40 40z" />
    <glyph glyph-name="ugrave" unicode="&#xf9;" horiz-adv-x="435" 
d="M11 155l64 190c5 15 7 25 7 33c0 18 -14 24 -44 24h-34l3 9l126 10c1 -31 -4 -63 -26 -126l-49 -141c-8 -23 -21 -71 -21 -94c0 -26 7 -42 36 -42c64 0 160 124 198 250l43 143h47l-92 -300c-6 -18 -13 -48 -13 -62c0 -18 4 -30 22 -30c20 0 55 37 95 109l9 -6
c-38 -75 -81 -128 -123 -128c-29 0 -43 17 -43 48c0 24 9 54 16 76l15 49l-3 1c-53 -96 -122 -174 -183 -174c-44 0 -66 26 -66 72c0 32 7 63 16 89zM277 466l-107 63c-25 15 -36 29 -36 43s11 28 30 28c17 0 29 -15 45 -36l72 -94z" />
    <glyph glyph-name="underscore" unicode="_" horiz-adv-x="425" 
d="M-110 -95h427l-3 -11h-427z" />
    <glyph glyph-name="v" unicode="v" horiz-adv-x="405" 
d="M11 102c0 34 11 86 27 136l34 106c4 14 6 26 6 34c0 19 -14 23 -44 23h-32l3 9l126 11c0 -35 -11 -75 -28 -128l-21 -62c-16 -50 -26 -96 -26 -136c0 -47 14 -82 63 -82c118 0 202 176 202 289c0 43 -58 57 -58 96c0 18 14 29 31 29c33 0 50 -41 50 -91
c0 -144 -98 -344 -241 -344c-53 0 -92 29 -92 110z" />
    <glyph glyph-name="w" unicode="w" horiz-adv-x="597" 
d="M536 336c0 -113 -91 -342 -220 -342c-57 0 -93 40 -87 119h-2c-38 -82 -83 -119 -132 -119c-50 0 -84 36 -84 109c0 35 11 88 27 140l34 102c4 14 6 25 6 33c0 19 -13 23 -43 23h-33l3 9l126 11c0 -38 -13 -81 -28 -129l-17 -44c-22 -69 -30 -117 -30 -144
c0 -55 15 -90 53 -90c43 0 91 52 119 154l70 245h44l-49 -166c-16 -58 -28 -110 -28 -143c0 -55 19 -89 65 -89c77 0 183 149 183 286c0 45 -58 58 -58 97c0 18 12 29 29 29c34 0 52 -41 52 -91z" />
    <glyph glyph-name="x" unicode="x" horiz-adv-x="400" 
d="M183 224c20 -159 37 -203 61 -203c23 0 47 22 77 101l8 -4c-18 -66 -59 -124 -99 -124c-43 0 -60 16 -82 175c-55 -113 -94 -175 -145 -175c-24 0 -44 14 -44 40s18 42 38 42s33 -12 33 -31c0 -11 -3 -20 5 -20c18 0 68 80 111 169c-24 176 -35 199 -55 199
c-17 0 -46 -23 -85 -101l-8 5c36 83 77 127 122 127c26 0 42 -22 60 -179c54 111 103 180 156 180c27 0 45 -18 45 -43s-16 -41 -39 -41c-20 0 -34 14 -34 38c0 9 2 14 -7 14c-18 0 -78 -81 -118 -169z" />
    <glyph glyph-name="y" unicode="y" horiz-adv-x="399" 
d="M157 -1c-11 84 -36 217 -45 258c-24 107 -36 140 -53 140c-14 0 -36 -25 -75 -103l-8 5c37 88 74 127 112 127c28 0 43 -29 76 -188c11 -54 23 -124 28 -192c37 62 119 212 119 270c0 37 -25 39 -30 71c-3 20 12 40 35 40c21 0 36 -22 36 -52c0 -50 -54 -182 -150 -337
c-115 -186 -183 -246 -236 -246c-38 0 -60 22 -61 48c-1 27 17 44 39 44c19 0 34 -13 34 -34c0 -17 -13 -27 -13 -34c0 -4 2 -8 17 -8c45 0 142 125 175 191z" />
    <glyph glyph-name="yacute" unicode="&#xfd;" horiz-adv-x="399" 
d="M157 -1c-11 84 -36 217 -45 258c-24 107 -36 140 -53 140c-14 0 -36 -25 -75 -103l-8 5c37 88 74 127 112 127c28 0 43 -29 76 -188c11 -54 23 -124 28 -192c37 62 119 212 119 270c0 37 -25 39 -30 71c-3 20 12 40 35 40c21 0 36 -22 36 -52c0 -50 -54 -182 -150 -337
c-115 -186 -183 -246 -236 -246c-38 0 -60 22 -61 48c-1 27 17 44 39 44c19 0 34 -13 34 -34c0 -17 -13 -27 -13 -34c0 -4 2 -8 17 -8c45 0 142 125 175 191zM200 466l-4 4l72 94c16 21 28 36 45 36c19 0 30 -14 30 -28s-11 -28 -36 -43z" />
    <glyph glyph-name="ydieresis" unicode="&#xff;" horiz-adv-x="399" 
d="M157 -1c-11 84 -36 217 -45 258c-24 107 -36 140 -53 140c-14 0 -36 -25 -75 -103l-8 5c37 88 74 127 112 127c28 0 43 -29 76 -188c11 -54 23 -124 28 -192c37 62 119 212 119 270c0 37 -25 39 -30 71c-3 20 12 40 35 40c21 0 36 -22 36 -52c0 -50 -54 -182 -150 -337
c-115 -186 -183 -246 -236 -246c-38 0 -60 22 -61 48c-1 27 17 44 39 44c19 0 34 -13 34 -34c0 -17 -13 -27 -13 -34c0 -4 2 -8 17 -8c45 0 142 125 175 191zM252 530c0 23 18 40 40 40s41 -17 41 -40s-19 -40 -41 -40s-40 17 -40 40zM110 530c0 23 18 40 40 40
s41 -17 41 -40s-19 -40 -41 -40s-40 17 -40 40z" />
    <glyph glyph-name="yen" unicode="&#xa5;" horiz-adv-x="555" 
d="M407 423h117l-3 -12h-123l-97 -125h189l-3 -12h-190l-49 -201c-12 -48 4 -60 47 -60h33l-4 -13h-240l4 13h33c44 0 64 13 76 61l50 200h-185l3 12h179l-38 124h-110l3 12h103l-44 151c-13 42 -32 61 -78 61h-3l4 13h197l-4 -13h-20c-34 0 -47 -12 -48 -32
c0 -9 2 -19 5 -29l79 -283l176 232c29 39 40 65 41 84c1 20 -19 28 -52 28h-13l4 13h195l-4 -13c-72 -9 -93 -34 -155 -114z" />
    <glyph glyph-name="z" unicode="z" horiz-adv-x="351" 
d="M27 62c-16 0 -24 -18 -24 -33c0 -19 -12 -35 -30 -35s-28 14 -28 33c0 41 59 89 143 163c101 88 194 128 220 201l-3 3c-27 -33 -49 -46 -88 -46c-43 0 -61 29 -108 29c-36 0 -71 -29 -89 -84h-9c14 73 50 129 115 129c63 0 76 -57 117 -57c17 0 27 13 33 32
c4 13 14 24 26 24c15 0 21 -12 21 -28c0 -29 -56 -85 -142 -159c-62 -53 -201 -128 -211 -195l4 -2c19 28 39 41 76 41c53 0 80 -37 132 -37c45 0 87 33 101 105h9c-7 -90 -55 -152 -129 -152c-60 0 -90 68 -136 68z" />
    <glyph glyph-name="zcaron" unicode="&#x17e;" horiz-adv-x="351" 
d="M27 62c-16 0 -24 -18 -24 -33c0 -19 -12 -35 -30 -35s-28 14 -28 33c0 41 59 89 143 163c101 88 194 128 220 201l-3 3c-27 -33 -49 -46 -88 -46c-43 0 -61 29 -108 29c-36 0 -71 -29 -89 -84h-9c14 73 50 129 115 129c63 0 76 -57 117 -57c17 0 27 13 33 32
c4 13 14 24 26 24c15 0 21 -12 21 -28c0 -29 -56 -85 -142 -159c-62 -53 -201 -128 -211 -195l4 -2c19 28 39 41 76 41c53 0 80 -37 132 -37c45 0 87 33 101 105h9c-7 -90 -55 -152 -129 -152c-60 0 -90 68 -136 68zM324 610l-113 -146h-36l-42 143l5 3l70 -91l111 93z" />
    <glyph glyph-name="zero" unicode="0" horiz-adv-x="491" 
d="M182 -13c-87 0 -156 70 -156 206c0 49 7 107 20 159c40 158 145 313 270 313c68 0 149 -52 149 -216c0 -37 -4 -76 -11 -114c-34 -176 -147 -348 -272 -348zM183 -4c93 0 176 159 208 307c18 81 27 153 27 204c0 100 -38 149 -102 149c-98 0 -176 -149 -210 -290
c-21 -88 -32 -154 -32 -231c0 -92 49 -139 109 -139z" />
    </font>
</defs>
</svg>
